<svg xmlns="http://www.w3.org/2000/svg" viewBox="0 0 411.21 213.29"><defs><style>.cls-1{fill:#ea8024;}.cls-2{fill:#6d6e71;}.cls-3,.cls-4{fill:#231f20;}.cls-4{fill-rule:evenodd;}</style></defs><g id="Layer_2" data-name="Layer 2"><g id="Layer_1-2" data-name="Layer 1"><path class="cls-1" d="M172,0a22.08,22.08,0,0,0-18.89,10.59l-87,154.13h51L210,0Z"/><path class="cls-2" d="M38,47.38H0L66.15,164.72l25.48-45.2L57.21,58.46A22.14,22.14,0,0,0,38,47.38Z"/><path class="cls-2" d="M363.91,86.62c-1.67-3,.16-5.25,3.2-5.25h44.1L397.37,55.7h-.05a16.7,16.7,0,0,0-14-8.29l0,0H323c-14.88,0-23.5,14.81-16.47,27.58,2,3.56,28.31,50.37,28.31,50.37,1.4,2.48.63,5.27-3,5.46H306.52l19.41,34h49.32c18.56,0,22.71-17.46,17.36-27.13C385.54,124.84,365,88.54,363.91,86.62Z"/><path class="cls-2" d="M222.8,92.57l34.43,61.07a22.11,22.11,0,0,0,19.2,11.08h38L248.28,47.38Z"/><path class="cls-3" d="M104.47,212.11h37.94A22.1,22.1,0,0,0,161.3,201.5l87-154.12h-51Z"/><path class="cls-4" d="M308.21,188.42c-3.68-1.86-7.16-3.61-8.28-6.63a5.8,5.8,0,0,1,.52-5.54,7.8,7.8,0,0,1,6.4-3.07q.34,0,.69,0c3.93.32,6.68,2.92,8.4,7.93l1-.16v-10.9l-.71.28a6.11,6.11,0,0,1-2.22.38h0a19.23,19.23,0,0,1-3.4-.42,26.72,26.72,0,0,0-3.16-.43c-.38,0-.75,0-1.13,0-7.38,0-13.53,4.76-14.2,10.52-.92,7.85,5.52,11.34,11.19,14.42,2.84,1.53,5.52,3,6.91,4.8s2.11,3.11,1.38,5.25a7.68,7.68,0,0,1-2.45,3.35c-2.49,1.78-5.84,1.59-7.33,1.44-3.6-.81-6.54-3.86-8.91-9.31l-1,.24v1.24h0v10.9l.71-.28a5.91,5.91,0,0,1,2.22-.38h0a19.8,19.8,0,0,1,3.39.41,29.46,29.46,0,0,0,6.16.82c7.22-.25,13.86-3.91,14.46-11.85C319.36,194,313.44,191.05,308.21,188.42Z"/><path class="cls-3" d="M335,208.68c-4.16,0-3.9-4.28-3.9-4.28V186.51h3.51c2.59,0,3.8-2.79,3.8-2.79h-7.31V173.11h-8.91a4.34,4.34,0,0,1,1.59,2.6v8l-4.41.08-.52,3.69a2.42,2.42,0,0,1,2-1h2.93v21.66s-.22,5.12,5.54,5.12c3.81,0,8.05-2.53,11-4.69l-.51-.75A12.25,12.25,0,0,1,335,208.68Z"/><path class="cls-3" d="M408.68,170.65h-9.2c1.73,1.11,1.79,2.86,1.79,4.6v31.69c0,3.14-.23,4.37-1.69,5.5h11c-2.09-1.35-1.86-4.15-1.86-5.5V170.65Z"/><path class="cls-3" d="M355.92,208.73c-6.75,0-9.85-5.84-9.49-11.46H360l7.33-3c0-6.78-4.72-12.54-12.95-12.54-7.54,0-14.52,4.51-14.52,17.14,0,8.4,5.65,14.37,14.63,14.37,6,0,11.09-4.29,12.95-7.51L367,205A16.44,16.44,0,0,1,355.92,208.73Zm-2.52-23c6.92,0,6.39,8.45,6.39,8.45H346.43C346.43,191.23,347.32,185.76,353.4,185.76Z"/><path class="cls-3" d="M385.72,208.73c-6.75,0-9.86-5.84-9.5-11.46h13.57l7.33-3c0-6.78-4.72-12.54-13-12.54-7.54,0-14.52,4.51-14.52,17.14,0,8.4,5.65,14.37,14.64,14.37,6,0,11.09-4.29,13-7.51l-.43-.76A16.43,16.43,0,0,1,385.72,208.73Zm-2.52-23c6.91,0,6.38,8.45,6.38,8.45H376.22C376.22,191.23,377.11,185.76,383.2,185.76Z"/></g></g></svg>