<svg id="Layer_1" data-name="Layer 1" xmlns="http://www.w3.org/2000/svg" viewBox="0 0 1920 1080"><defs><style>.cls-1{fill:#ebf3fa;}.cls-2{fill:#d5e5fb;}.cls-3{fill:#b7d3f3;}.cls-4{fill:#d2e3fc;}.cls-5{fill:#c5dcf8;}.cls-6{fill:#ffb27d;}.cls-7{fill:#1c468a;}.cls-8{fill:#163560;}.cls-9{fill:#b5453c;}.cls-10{fill:#ed975d;}.cls-11{fill:#fff;}.cls-12{fill:#ed7d2b;}.cls-13{fill:#f99746;}.cls-14{fill:#f9ddbf;}.cls-15{fill:#ed893e;}.cls-16{fill:#95c0f4;}.cls-17{fill:#78acea;}.cls-18{fill:#aec3ff;}.cls-19{fill:#a02e2e;}.cls-20{fill:#bc3f3f;}.cls-21{fill:#9db0f4;}.cls-22{fill:#233862;}.cls-23{fill:#2b478b;}.cls-24{fill:#e2915a;}.cls-25{fill:#2a4e96;}.cls-26{fill:#dceaff;}.cls-27{fill:#ed985f;}.cls-28{fill:#2c3a64;}.cls-29{fill:#e3eaff;}.cls-30{fill:#95a6db;}.cls-31{fill:#4364cc;}.cls-32{fill:#f37a50;}.cls-33{fill:#8a284c;}.cls-34{fill:#e62552;}.cls-35{fill:#3b1120;}.cls-36{fill:#de623c;}.cls-37{fill:#070635;}.cls-38{fill:#768fdb;}.cls-39{fill:#95adf5;}.cls-40{fill:#201d40;}.cls-41{fill:#2c2858;}.cls-42{fill:#c4204a;}.cls-43{fill:#3f964f;}.cls-44{fill:#0e6a41;}.cls-45{fill:#494c7f;}.cls-46{fill:#555994;}.cls-47{fill:#cfdbff;}.cls-48{fill:#7f99eb;}.cls-49{fill:#bdcdff;}.cls-50{fill:#cdd8fa;}.cls-51{fill:#062440;}.cls-52{fill:#80bc48;}.cls-53{fill:#17962e;}.cls-54{fill:#de8914;}.cls-55{fill:#ff9a16;}.cls-56{fill:#faaf16;}.cls-57{fill:#fac352;}</style></defs><path class="cls-1" d="M123.28,1079.05s-89.7-95.32-26.8-184.24c23.46-33.17,83.38-51.81,138.45-36.69C267.46,867.05,316.8,865.73,365,787c65.74-107.32,338.64-58.52,285.37,129.5-22.44,79.2,61.2,82.81,19.77,162.68Z"/><path class="cls-2" d="M608.85,888.1,413.48,1051.54,310.69,964c-19.23,16.95-48.95,43.1-78.84,69.34-20.43,17.93-37,32.42-50.37,44.15l-93.36-.11c25.89-22,130.13-113.65,200.36-175.56L310,882.87l103.9,88.52,152.52-127.6Z"/><polygon class="cls-2" points="541.65 823.69 634.69 917.02 660.98 810.4 541.65 823.69"/><path class="cls-3" d="M236.63,1020.34a172.15,172.15,0,0,0-2-21.16c-1.43-8.26-2.71-13-2.73-13.07-.19-.73-2.91-3.67-9-3.58s-5.48,4-5.48,4h0a1.11,1.11,0,0,0,.05.34,185.06,185.06,0,0,1,5.37,46.31c0,.37,0,1,0,1.42,0,0,14,.36,14,0C237.37,1032.28,237.13,1026,236.63,1020.34Z"/><path class="cls-4" d="M238.39,1033c0,.37-.2.66-.43.66h0c-.23,0-.42-.3-.42-.66h-12c0,.37-.19.66-.43.66h0c-.24,0-.43-.31-.42-.67a181.78,181.78,0,0,0-1-20.52,162.19,162.19,0,0,0-4.59-25.65,1.13,1.13,0,0,1,0-.34s-.58-3.86,5.47-4,8.77,2.85,9,3.58c0,0,.74,2.73,1.7,7.57.32,1.6.67,3.44,1,5.5a174.45,174.45,0,0,1,2,21.16C238.7,1026,238.88,1030.73,238.39,1033Z"/><path class="cls-5" d="M223.78,1033.66h47.08s-1.1-4.44-28.36-3.78C223.2,1030.35,223.78,1033.66,223.78,1033.66Z"/><path class="cls-3" d="M220,1080c5.46-27.63,4.05-44.59,4-44.81,0-.42.78-.81,1.2-.82s2.31-.13,2.53.24S229.1,1056,221,1080Z"/><path class="cls-3" d="M263.91,1080c-5.46-27.63-4.06-44.59-4.05-44.81,0-.42-.77-.81-1.2-.82s-2.31-.13-2.52.24-1.39,21.37,6.75,45.39Z"/><path class="cls-3" d="M272.62,1080c-5.46-27.63-4.06-44.59-4.05-44.81,0-.42-.77-.81-1.19-.82s-2.31-.13-2.53.24S263.46,1056,271.6,1080Z"/><path class="cls-3" d="M228.72,1080c5.46-27.63,4.05-44.59,4.05-44.81,0-.42.77-.81,1.19-.82s2.31-.13,2.53.24,1.38,21.37-6.75,45.39Z"/><rect class="cls-3" x="222.84" y="1032.51" width="49.01" height="2.56" rx="1.18"/><path class="cls-6" d="M269.23,992.55l15.65-3.38.93,2.24s-17.27,10.28-18.89,9.77S269.23,992.55,269.23,992.55Z"/><path class="cls-6" d="M255,1063.33a1.37,1.37,0,0,0-.25,1.49h0a9.28,9.28,0,0,0,2.92,3.2l.47.39.11.1.08.07c1.28,1.18.8,1.46,3.1,3.86,2.63,2.73,4.44,2.78,5,2.53s-.45-1.66-1.43-3.29c-.05-.08-.1-.16-.14-.24l-.39-.65c-1.15-2-.86-2.89-.59-5.81.23-2.37,3.7-13.26,3.7-13.26l-5-.87s-1.52,8.67-3.19,10c-.9.72-1.9.73-2.76,1.25l-.18.12A6.55,6.55,0,0,0,255,1063.33Z"/><path class="cls-7" d="M255,1063.33a1.37,1.37,0,0,0-.25,1.49h0a10.72,10.72,0,0,0,2.93,3.19l.46.4.11.1.08.07c1.28,1.18.8,1.46,3.1,3.86,2.63,2.73,4.44,2.78,5,2.53s-.45-1.66-1.43-3.29a11.3,11.3,0,0,1-4.69-3.46c-1.58-2-2.64-4.61-3.72-6.12l-.18.12A6.55,6.55,0,0,0,255,1063.33Z"/><path class="cls-6" d="M295.64,1060.19c.31,1.55,2.53,1.29,5,.69s1.89.11,5.41-.28,4.6-1.7,4.7-2.23-1.64-.63-3.51-.84l-.71-.09c-2.11-.26-3.65-1.62-5.57-2.74s-4.52-5.38-4.52-5.38l-4.84.39s2.54,3.85,3.52,5.53a5.82,5.82,0,0,1,.48,3.29A6.15,6.15,0,0,0,295.64,1060.19Z"/><path class="cls-7" d="M300.65,1060.88c2.48-.61,1.89.11,5.41-.28s4.6-1.7,4.7-2.23-1.64-.63-3.51-.84l0,0a9.91,9.91,0,0,1-5.05,1.57c-2.39.06-4.92-.62-6.57-.6a6.15,6.15,0,0,0,0,1.66C296,1061.74,298.17,1061.48,300.65,1060.88Z"/><path class="cls-6" d="M284.88,989.17s1.16-2.83,2.42-2.94,5.3-.75,5.59-.18a4,4,0,0,1-.86,3.4c-.87.75-6.22,2-6.22,2Z"/><path class="cls-8" d="M277.11,1029.27l-10.42,28a9.52,9.52,0,0,1-3.14-.28,13.63,13.63,0,0,1-3-1.48s2.59-26.93,7.33-32.53S277.11,1029.27,277.11,1029.27Z"/><path class="cls-7" d="M235.89,1017.92s29.95-10.12,36.63-8,26.73,42,26.73,42a3.93,3.93,0,0,1-1.69,1.06,16.08,16.08,0,0,1-3.93.41s-18.1-15.51-20.25-20-3-8.83-5.17-8.4-27.79,10.56-33.61,4.52a16.77,16.77,0,0,1-4.3-13.86Z"/><path class="cls-9" d="M253,946.52a7.33,7.33,0,0,0-3.93-.75,1.8,1.8,0,0,1,.83-.39,6.07,6.07,0,0,0-2.17.57c-9.36-3.61-10.83,10.17-10.63,13.37s.21,6.89-4.46,9.76c-9.19,5.65-1.43,15.51-1.43,15.51s4.27,7.17,4.27,7.17c-.23-2.58,11.7-16.24,17.93-20.32,1.52-2.24,2.06-6.18,2.1-6.49a17.15,17.15,0,0,1-1.28,5.87C259.47,966,256.4,948.47,253,946.52Z"/><path class="cls-6" d="M253,971.64s-3,1.59-5.29,1-3.55-3.38-3.52-3.38c.91-.19,1.17-1.44,1.15-6.81l.41.08,6.92,1.37s-.16,2.18-.16,4.23C252.5,969.82,252.61,971.45,253,971.64Z"/><path class="cls-10" d="M252.67,963.87s-.16,2.18-.16,4.23c-3.87-.11-5.92-3.64-6.76-5.6Z"/><path class="cls-9" d="M245,961.75a20.45,20.45,0,0,1-2.52-6c-.35-2,.65-9.21,7.94-8.17a10,10,0,0,1,4.11,1.55c1.58,1.07,3.87,3.38,1.31,9.71l-.66,2.14Z"/><path class="cls-6" d="M254,965.81s-9.16.15-9.16-5.55-1.2-9.53,4.65-9.87,7,1.84,7.46,3.74S256.35,965.63,254,965.81Z"/><path class="cls-9" d="M253.62,950.25s-2.5,6.69-6.35,7.68-5.52,0-5.52,0a10.87,10.87,0,0,0,3.56-6.44S251.73,947.06,253.62,950.25Z"/><path class="cls-9" d="M253,950.79a8.06,8.06,0,0,1,2.33,3c.46,1.45.67,4.44,1.54,4.34,0,0,1.89-4.55-.24-7.12C254.38,948.23,253,950.79,253,950.79Z"/><path class="cls-7" d="M232.6,996.29c-.9-3.79,2.17-11.15,5.38-17.23,2.91-5.52,5.93-10,6.21-9.83,7.67,4.55,8.37.76,8.37.76h0s7,.93,8.95,4.33c2.45,4.22,5.09,16,7.72,18.23-.4,1.24-.23,1.9.2,3.43a7.8,7.8,0,0,0,.31.93,17.64,17.64,0,0,0,1.31,2.71c-1.33.82-3.91,2.36-5.81,1.25-2.9-1.7-5.16-6.86-6.44-8.92v0c-2.77,15.66,1,19.23-.91,20.88s-4.88-.83-11.2,1.91c-4.15,1.79-9.9,4.39-13.77,4.85-2,.23-3.55-.12-4-1.49C227.43,1014.09,234.33,1003.51,232.6,996.29Z"/><path class="cls-11" d="M251.93,962.35s.17.73,2,.62c0,0,1.52-.1,1.47-.89A4.87,4.87,0,0,0,251.93,962.35Z"/><path class="cls-8" d="M228.87,1018.08c.49,1.37,2,1.72,4,1.49,2.68-1.17,14.26-5.66,14.13-8.7-.2-4.5-2.23-4.64-.79-10.19,1.15-4.46-9.55-12.76-11.25-14.56-3.21,6.09-3.3,6.38-2.4,10.17C234.33,1003.51,227.43,1014.09,228.87,1018.08Z"/><path class="cls-7" d="M227.56,1001.85a16.85,16.85,0,0,1,5.6-5.17c-.32-.84,8.64-11.82,8.64-13.53s2.39-13.93,2.39-13.93-7.47.47-10.05,4.07C230.9,977.8,224.19,995.15,227.56,1001.85Z"/><path class="cls-6" d="M233.16,996.68l14.92,3.89-1.4,2.51s-18.16-.13-19.12-1.23S233.16,996.68,233.16,996.68Z"/><path class="cls-8" d="M258.8,992c1.28,2.06,3.54,7.22,6.44,8.92,1.9,1.11,4.48-.43,5.81-1.25a17.64,17.64,0,0,1-1.31-2.71c-1.07.25-2.37.56-3.21.81C264.89,998.22,258.8,992,258.8,992Z"/><path class="cls-6" d="M248.08,1000.57s4.68-1.33,5.8-1,4.94,2.84,4.4,3.53-3.9-.41-5.45-.2-2.75,1-3.87.81a13.26,13.26,0,0,1-2.28-.61Z"/><path class="cls-6" d="M248.08,1000.57a17.55,17.55,0,0,0,2.94-1.85.19.19,0,0,1,.29,0c.17.28.34.81-.47,1.34A4.33,4.33,0,0,1,248.08,1000.57Z"/><path class="cls-12" d="M269.73,1007.16H247.87a1.74,1.74,0,0,1,1.74-1.74h20.12Z"/><polygon class="cls-12" points="269.67 983.35 303.46 983.35 295.36 1007.16 261.34 1007.16 269.67 983.35"/><polygon class="cls-13" points="303.96 983.35 295.85 1007.16 261.84 1007.16 270.17 983.35 303.96 983.35"/><path class="cls-14" d="M285.74,995a2.19,2.19,0,0,1-2,1.64,1.26,1.26,0,0,1-1.26-1.64,2.19,2.19,0,0,1,2-1.65A1.27,1.27,0,0,1,285.74,995Z"/><path class="cls-15" d="M304,983.35l-8.11,23.81H273.33c14.92-5.09,18.89-20.62,19.56-23.81Z"/><path class="cls-16" d="M205.85,1080a.88.88,0,0,0,.87-.71l4.24-24.06,6.1-34.6,1.71-9.68-4.35-.12-.75,5.62-5.3,39.47-3.14,23.4A.61.61,0,0,0,205.85,1080Z"/><path class="cls-17" d="M213.67,1016.45a6.2,6.2,0,0,1,3.39,4.18l1.71-9.68-4.35-.12Z"/><path class="cls-16" d="M314,1080a.88.88,0,0,1-.87-.71l-4.24-24.06-6.11-34.6-1.7-9.68,4.35-.12.75,5.62,5.3,39.47,3.14,23.4A.61.61,0,0,1,314,1080Z"/><path class="cls-17" d="M306.19,1016.45a6.23,6.23,0,0,0-3.4,4.18l-1.7-9.68,4.35-.12Z"/><rect class="cls-17" x="200.3" y="1007.15" width="116.66" height="7.6" rx="3.49" transform="translate(517.26 2021.91) rotate(180)"/><path class="cls-6" d="M479.55,1003.11s-2.89,3.58-2,4.07,3.29,1.4,3.86.82.74-4.79.74-4.79Z"/><path class="cls-6" d="M479.67,1003.17a4.32,4.32,0,0,0-1.65,1c-.46.61-1.49,1.55-1.24,1.81s1.73-.89,1.73-.89Z"/><path class="cls-18" d="M490.47,955.26s-3.26,30.31-3.55,31.18c-.06.19-.31,1.15-.67,2.53-.52,2-1.24,4.8-1.93,7.49l-2,7.83-2.83-.93s-.15-14.73.58-18.12,3.05-24.24,4.23-27S490.47,955.26,490.47,955.26Z"/><rect class="cls-19" x="468.61" y="1004.05" width="16.64" height="27.05" rx="4.34" transform="matrix(0.25, -0.97, 0.97, 0.25, -628.34, 1220.77)"/><path class="cls-20" d="M467.2,1010.9l-2,7.79a4.38,4.38,0,0,0,1.06,4.1,4.28,4.28,0,0,0,1.17.88h0a4.23,4.23,0,0,0,.88.34l17.73,4.65a4.37,4.37,0,0,0,5.32-3.11l2.05-7.79a4.38,4.38,0,0,0-3.12-5.32l-6.1-1.6.44-1.66a1.44,1.44,0,0,0-1-1.76l-.67-.17-3.71-1-.93-.24a1.44,1.44,0,0,0-1.09.15,1.4,1.4,0,0,0-.66.88l-.44,1.66-3.53-.93-.42-.09h0a4.35,4.35,0,0,0-3.79,1.26h0A4.27,4.27,0,0,0,467.2,1010.9Zm16.08-.29-6.35-1.66.44-1.66a.54.54,0,0,1,.66-.39l1.59.42,2.92.77.79.2.15.07a.54.54,0,0,1,.23.59Z"/><path class="cls-6" d="M481.24,1008.08s.79-1.32.49-1.79-1.36,1.38-1.36,1.38.73-1.58.46-1.84-1.39,1.56-1.39,1.56.7-1.54.45-1.59-1.07,1.29-1.07,1.29.43-1.15,0-1.1-1.24,1.11-1.24,1.11Z"/><path class="cls-21" d="M486.25,989c-.52,2-1.24,4.8-1.93,7.49a29.47,29.47,0,0,1-1.36-5.94c-.65-5,1.36-15.7,1.36-15.7Z"/><path class="cls-6" d="M523.5,1001.86s3.14,2.56,3.53,3.36a17.07,17.07,0,0,1,1.32,4.71c-.05,1-2.41-2.19-3.11-2.44s.73,1.29.57,1.62-1.64-.75-2.2-1.1-1-2.75-1.8-4S523.5,1001.86,523.5,1001.86Z"/><path class="cls-22" d="M482.18,1078.44h15.7c1.13-.77-.3-8.22-.3-8.22s-4.29-1.63-5,1.68-5.45,4.35-7.95,4.75A2.7,2.7,0,0,0,482.18,1078.44Z"/><path class="cls-22" d="M505.46,1078.44h15.7c1.12-.77-.3-8.22-.3-8.22s-4.29-1.63-5,1.68-5.45,4.35-8,4.75A2.69,2.69,0,0,0,505.46,1078.44Z"/><path class="cls-23" d="M486.41,1002.37s.7,8.8,1.53,19.38c1.13,14.37,4.17,50,4.17,50s2,1.7,6.41.77a140.07,140.07,0,0,0,4.88-26.32c0-.23,0-.47.05-.7,1-14.28,2.67-44.36,2.67-44.36Z"/><path class="cls-22" d="M486.17,999.33s.94,11.84,1.77,22.42l15.46,24.46c0-.23,0-.47.05-.7,1-14.28,2.67-44.36,2.67-44.36Z"/><path class="cls-23" d="M490.67,999.33s11.21,27.9,14.79,38.47c2.56,7.54,9.75,34,9.75,34a7.26,7.26,0,0,0,5.77-.89s2.67-27-2.74-34.62c-2.87-4-.71-42-12.35-42.31S490.67,999.33,490.67,999.33Z"/><path class="cls-18" d="M512,1001.86c-4.67,2.64-24.7,2.58-25.62.51-2.07-4.62-2.59-28.11-1.62-35.31,0,0,.51-11.07,1.62-10.58,7.39-3.4,19.36-.32,19.36-.32,3.23,1,3,8.33,3.86,18.69.11,1.33.24,2.72.38,4.16.64,6.4,1.57,13.75,3,21.5C513.08,1001,512.73,1001.47,512,1001.86Z"/><path class="cls-6" d="M500.24,954.92c-.12,2-2.7,1.75-5.81,1.05s-2-2.54-2-2.54.05-1.41.24-3.1c.08-.61.16-1.26.28-1.89.06-.31.12-.62.19-.91.4-1.75,6.2-.06,6.16.41C499.21,949.2,500.12,953.36,500.24,954.92Z"/><polygon class="cls-22" points="493.59 958.38 493.34 955.64 496.78 956.29 495.46 958.73 493.59 958.38"/><path class="cls-21" d="M492.52,952.14l-2,3.12a4.56,4.56,0,0,0,1.78,3.32l2.81-2.62S493.25,955.27,492.52,952.14Z"/><path class="cls-21" d="M495.06,956a7.31,7.31,0,0,0,1.71,3s4.38-1.18,5.43-3.42l-2.29-3S499.8,954.87,495.06,956Z"/><path class="cls-24" d="M499.35,948.92a10.7,10.7,0,0,1-6.66,1.41c.08-.61.16-1.26.28-1.89.77-.19,1.4-.3,1.4-.3Z"/><path class="cls-6" d="M501.12,946.81c-1.36,3.76-6.34,2.8-8.46,2.19-.6-.17-1-.31-1-.31-.65-.29-.85-1.44-.8-2.88a22.72,22.72,0,0,1,1.89-7.87c1-1.46,2.6-3,7.43-.88S502.87,942,501.12,946.81Z"/><path class="cls-22" d="M504.85,944.88c-1.52,1.25-4.8,3.55-4.8,3.55a5.74,5.74,0,0,0,.81-1.68,1.55,1.55,0,0,0,.06-.56,3.13,3.13,0,0,1,.45-1.74c.2-.32.27-.66,0-.89-.41-.4-1.12,0-1.58.28a.94.94,0,0,1-1,0h0c-1.3-.81.14-2.25-.92-3.44s-5.64-1.36-5.46-2.11c-1.56-.88-.58-4.14-.55-4.31a16.88,16.88,0,0,0,5-.5c2.27-.58,4.78.89,5.57,1.49a1.29,1.29,0,0,0-.12-.56,1.21,1.21,0,0,1,.34.74s.05.06,0,.06a1.44,1.44,0,0,1,.71.17s-.19-.06-.28.05a.05.05,0,0,1,0,0C506.16,937.63,506.12,943.85,504.85,944.88Z"/><path class="cls-11" d="M493.92,946.27s-.24.47-1.47.08c0,0-1-.33-.87-.88A3.52,3.52,0,0,1,493.92,946.27Z"/><path class="cls-25" d="M493.59,958.37s-2.74,34.66-2.71,37.55,3,5.94,3,5.94a12.75,12.75,0,0,0,2.86-5.38c.47-2.76-1.32-37.75-1.32-37.75Z"/><path class="cls-18" d="M505.78,956.17s4.42,1.05,7.92,7.78,6.27,20.28,7.94,23.86,2.82,14.85,2.82,14.85l-2.65,1.3s-6.39-11.55-7.33-15.34c-.51-2-8.33-18.46-8.33-18.46Z"/><path class="cls-21" d="M512,1001.86h0c-8.34-1.2-5.95-28.79-5.3-28.9s3.06,4.93,3.06,4.93L510,979c.64,6.4,1.57,13.75,3,21.5C513.08,1001,512.73,1001.47,512,1001.86Z"/><path class="cls-22" d="M616,1062.13s3.47,3.17,2.79,5.42-3.81,3.75-4.23,6.5-2.12,4.25-3.64,4.25h-7.27s-1.12-1.94,1.59-2.52,3.73-3.82,3.56-6.82a52.26,52.26,0,0,1,.26-7l5.75-1.33Z"/><path class="cls-22" d="M573.46,1070.32s.62,7.21-.9,8l-19.51,0s0-2.25,3.14-2.75,8.63-2.34,9.56-6.42S573.46,1070.32,573.46,1070.32Z"/><path class="cls-25" d="M557,968.49s1,12.64,2.24,27.83c1.64,20.63,3.62,46,3.81,50.78.34,8.33,1.7,21.67,1.7,21.67s3.21,3.17,9.65,1.83a215.58,215.58,0,0,0,7.37-39.18c0-.33,0-.66.08-1,1.52-20.51,3.89-63.69,3.89-63.69Z"/><path class="cls-22" d="M557,968.49s1,12.64,2.24,27.83l22.53,35.1c0-.33,0-.66.08-1,1.52-20.51,3.89-63.69,3.89-63.69Z"/><path class="cls-25" d="M561.69,970s18.54,45.77,30.73,67.27,16,27.51,16,27.51,7-2.75,7.62-4.63c0,0-4.66-41.52-12.83-51.64-4.61-5.72-8.59-18.4-8.39-24.41.34-10.35-3.54-22.35-3.54-22.35Z"/><path class="cls-6" d="M546.88,970.67s-3.46,4.68-3.71,5.93-.56,5.72-.14,7,2.57-3.9,3.44-4.5-.54,2-.2,2.45,2-1.63,2.66-2.32.35-4.16,1.05-6.28S546.88,970.67,546.88,970.67Z"/><path class="cls-11" d="M562.15,902.55s-4.68,43.55-5.09,44.79c-.09.27-.46,1.65-1,3.63-.73,2.83-1.77,6.9-2.76,10.77-1.49,5.85-3.1,10.9-3.1,10.9a4,4,0,0,1-2.41.31,2.53,2.53,0,0,1-1.79-1.09s.17-21.38,1.22-26.25,4.38-34.81,6.07-38.84S562.15,902.55,562.15,902.55Z"/><path class="cls-26" d="M556.08,951c-.73,2.83-1.77,6.9-2.76,10.77a41.58,41.58,0,0,1-2-8.54c-.94-7.21,1.95-22.56,1.95-22.56Z"/><path class="cls-11" d="M593.13,969.49c-6.72,3.79-35.48,3.71-36.82.73-3-6.64-3.72-40.38-2.31-50.72,0,0,.72-15.91,2.31-15.21,10.63-4.88,27.83-.44,27.83-.44,4.63,1.36,4.24,12,5.53,26.84.17,1.92.35,3.91.56,6,.91,9.19,2.24,19.74,4.27,30.88C594.63,968.28,594.12,968.93,593.13,969.49Z"/><path class="cls-6" d="M576.19,902.06c-.18,2.84-3.89,2.52-8.35,1.5s-2.84-3.65-2.84-3.65.06-2,.34-4.44c.11-.88.24-1.82.4-2.73.08-.44.17-.88.27-1.3.58-2.51,8.91-.09,8.85.58C574.7,893.84,576,899.82,576.19,902.06Z"/><polygon class="cls-22" points="566.63 907.02 566.28 903.09 571.22 904.02 569.32 907.53 566.63 907.02"/><path class="cls-26" d="M565.1,898.06l-3,4.49a6.52,6.52,0,0,0,2.56,4.76l4-3.75S566.14,902.56,565.1,898.06Z"/><path class="cls-26" d="M568.75,903.56s.83,3,2.45,4.37c0,0,6.3-1.69,7.8-4.92l-3.28-4.23S575.56,902,568.75,903.56Z"/><path class="cls-24" d="M574.91,893.44a15.5,15.5,0,0,1-9.57,2c.11-.88.24-1.82.4-2.73,1.1-.26,2-.43,2-.43Z"/><path class="cls-6" d="M577.45,890.41c-2,5.39-9.11,4-12.15,3.15-.86-.24-1.39-.45-1.39-.45-.94-.42-1.23-2.07-1.15-4.14.16-4.11,1.78-9.9,2.71-11.3,1.4-2.1,3.74-4.24,10.68-1.26S580,883.5,577.45,890.41Z"/><path class="cls-20" d="M582.81,887.64c-2.19,1.78-6.89,5.09-6.89,5.09a8.66,8.66,0,0,0,1.16-2.4,2.48,2.48,0,0,0,.09-.82,4.46,4.46,0,0,1,.64-2.49c.29-.46.39-.95,0-1.29-.6-.56-1.61,0-2.28.41a1.33,1.33,0,0,1-1.46,0h0c-1.87-1.17.19-3.23-1.33-4.95s-8.1-1.94-7.84-3c-2.24-1.27-.83-6-.79-6.2a24.09,24.09,0,0,0,7.25-.72c3.27-.82,6.88,1.28,8,2.14a1.86,1.86,0,0,0-.19-.8,1.69,1.69,0,0,1,.49,1.06c0,.05.07.09.06.1a2.13,2.13,0,0,1,1,.23s-.28-.08-.41.08l-.06,0C584.69,877.23,584.63,886.15,582.81,887.64Z"/><path class="cls-11" d="M567.11,889.63s-.35.68-2.12.11c0,0-1.49-.47-1.24-1.25A5,5,0,0,1,567.11,889.63Z"/><path class="cls-25" d="M566.63,907s-3.94,49.79-3.89,53.94,4.37,8.53,4.37,8.53,3.43-3.76,4.11-7.73-1.91-54.23-1.91-54.23Z"/><path class="cls-26" d="M593.13,969.49h0c-12-1.72-8.54-41.36-7.6-41.51s4.38,7.08,4.38,7.08l.33,1.61c.91,9.19,2.24,19.74,4.27,30.88C594.63,968.28,594.12,968.93,593.13,969.49Z"/><rect class="cls-19" x="592.9" y="979.27" width="38.86" height="23.91" rx="6.24" transform="translate(-252.57 210.57) rotate(-16.23)"/><path class="cls-20" d="M595.41,990.18l3.23,11.11a6.34,6.34,0,0,0,6.42,4.5h0a6.41,6.41,0,0,0,1.34-.24l25.28-7.36a6.28,6.28,0,0,0,4.26-7.76l-3.23-11.1a6.28,6.28,0,0,0-7.76-4.27l-8.71,2.54-.69-2.37a2.06,2.06,0,0,0-2.56-1.41l-1,.28-5.3,1.54-1.31.38a2.06,2.06,0,0,0-1.41,2.56l.69,2.37-5,1.47a4.94,4.94,0,0,0-.58.2h0a6.29,6.29,0,0,0-3.75,4.35h0A6.25,6.25,0,0,0,595.41,990.18ZM615,978l-9,2.63-.69-2.37a.78.78,0,0,1,.53-1l2.27-.66,4.17-1.22,1.12-.32a.47.47,0,0,1,.23,0,.77.77,0,0,1,.73.55Z"/><path class="cls-6" d="M607.42,970.87s-.78,6.57.69,6.47,5.07-.8,5.32-1.93-2.76-6.41-2.76-6.41Z"/><path class="cls-6" d="M607.61,970.85a6,6,0,0,0-1.22,2.5c-.1,1.11-.64,3-.13,3.15s1.42-2.39,1.42-2.39Z"/><path class="cls-11" d="M584.14,903.85s6.36,1.52,11.39,11.18,9,29.14,11.4,34.28,4.22,20.57,4.22,20.57a2.33,2.33,0,0,1-1.66,1,7.75,7.75,0,0,1-2,.13s-9.45-15.14-10.81-20.59c-.74-2.94-12-26.51-12-26.51Z"/><polygon class="cls-6" points="165.26 1072.01 164.31 1065.15 168.31 1061.81 169.57 1070.89 165.26 1072.01"/><path class="cls-22" d="M178.56,1078.14H162.23a8.9,8.9,0,0,1,.47-4.37c.81-1.81,2.08-2.93,2.2-4.32a4.89,4.89,0,0,0,4.67,1.44,18,18,0,0,0,2.83,3.67C173.47,1075.33,178.23,1075.06,178.56,1078.14Z"/><path class="cls-13" d="M175.28,979.33c-1.07,8.59-1.94,16.68-2.65,24.22-3.8,40.2-3.06,64.77-3.06,64.77s-.27.72-2.63.74a13.8,13.8,0,0,1-2.63-.29s-8.51-26.25-7.85-41.18a23.39,23.39,0,0,1,.66-4.84c2-7.64-7.54-36.86,2.88-47.75S175.77,975.39,175.28,979.33Z"/><path class="cls-12" d="M175.28,979.33c-1.07,8.59-1.94,16.68-2.65,24.22l-16.17,24a23.39,23.39,0,0,1,.66-4.84c2-7.64-7.54-36.86,2.88-47.75S175.77,975.39,175.28,979.33Z"/><path class="cls-6" d="M188.12,897.44s-.39-2-.84-3.46c-.19-.66,1.17-5,2.12-5.55s3.41,2.39,2.71,4.64c-.36,1.16-1,4.92-1,4.92Z"/><path class="cls-6" d="M188.12,897.44s-.51-1.14-1-1.32-1-2-1.3-2.79c0,0,.33-.48.9.14.36.38,1.14,1.49,1.14,1.49Z"/><path class="cls-6" d="M120.75,904a8.92,8.92,0,0,0-.36.92,2.72,2.72,0,0,1,0-.28c0-.69-2.58-4.45-3.65-4.69s-2.55,3.29-1.23,5.24c.68,1,2.35,4.42,2.35,4.42l2.74-1.42s.16-1.24.55-1.55.32-2.24.43-3C121.57,903.64,121.12,903.27,120.75,904Z"/><path class="cls-6" d="M137.89,1070c-.23-2.2-.29-8-.29-8s5.9-1.89,5.68-.59a41.78,41.78,0,0,0-.77,9.51l-2.39,1.43Z"/><path class="cls-13" d="M170.35,978.92s-22.78,62.46-27.27,89.55a4.59,4.59,0,0,1-3,.48,3.35,3.35,0,0,1-2.8-1.8s-4.11-32.47,4.07-43.74c5.62-7.75-2.43-41.76,10.66-44.49S170.35,978.92,170.35,978.92Z"/><path class="cls-8" d="M166.3,918.84h0a.24.24,0,0,0,0-.08c-.13-.55-.27-1.09-.43-1.63h0a37.7,37.7,0,0,0-1.66-4.59,23.3,23.3,0,0,0-1.09-2.18l-.17-.29h0a6.55,6.55,0,0,0-2.6-2.82,8,8,0,0,0-4.29-.18,2,2,0,0,1,.82-.54,6.57,6.57,0,0,0-2.22.94c-10.49-2.35-9.88,12.5-9.16,15.86s-2.67,5-7.43,8.45c-9.1,6.56-9,13.53-9,13.53l.27.12c.37-.9,1.14-2.61,1.95-3,0,.08-.68,2.29-.87,3.53,1.39.76,3.3,1.94,5.39,3.28h0c2.78,1.78,5.86,3.83,8.32,5.5a5.63,5.63,0,0,1-.06-2.19l.78,2.43.11.32c1.57,1.06,2.81,1.91,3.44,2.35l.17.12.29.19c-.21-.86.7-3.1,2.24-5.92l.33-.6c.5-.89,1.06-1.83,1.65-2.8l.66-1.06h0l.56-.87h0c.45-.69.91-1.38,1.38-2.08,1.22-1.8,2.51-3.59,3.79-5.23a45.81,45.81,0,0,1,5.19-5.82c.05-.11.1-.21.14-.32a10.1,10.1,0,0,0,.56-1.79,5.78,5.78,0,0,0,.12-.57,24,24,0,0,0,.38-4.45,25.48,25.48,0,0,1,0,4.49c0,.24-.06.46-.1.67h0a9,9,0,0,1-.28,1.18,6.66,6.66,0,0,0,.67-1,7.58,7.58,0,0,0,.34-.76C167.7,927.91,167.37,923.23,166.3,918.84Z"/><path class="cls-6" d="M164.33,933.88s-2.94,2.16-5.46,1.86-4.3-3-4.27-3c.94-.33,1-1.7.15-7.4l.45,0,7.55.36s.18,2.34.5,4.51C163.52,932,163.88,933.75,164.33,933.88Z"/><path class="cls-10" d="M162.75,925.69s.18,2.34.5,4.51c-4.12.5-6.85-2.92-8.05-4.87Z"/><path class="cls-8" d="M154.32,924.65a21.9,21.9,0,0,1-3.6-5.91c-.68-2-.77-9.88,7.13-9.92a10.65,10.65,0,0,1,4.6,1c1.85.88,4.63,3,2.92,10.09l-.36,2.37Z"/><path class="cls-11" d="M176.23,977.72a32,32,0,0,1-22.17,2.84c-.15,0-10.17-1.63-10.17-1.63.17-.47,1.47-8.21,1.64-8.65,2.19-5.65,6.19-36.31,9.53-37.83.86.93,3.3,1.57,5.39,1.38,2.4-.21,3.21-1.25,3-2.36,2.66,1.25,4.7,2.42,4.7,2.42C170.59,937.54,176.23,977.72,176.23,977.72Z"/><path class="cls-6" d="M164.43,927.55s-9.69,1.61-10.6-4.44-2.76-9.92,3.38-11.2,7.71.84,8.5,2.79S166.93,927,164.43,927.55Z"/><path class="cls-8" d="M161.62,911.1s-1.61,7.49-5.53,9.15-5.86.83-5.86.83a11.69,11.69,0,0,0,2.76-7.39S159.11,908,161.62,911.1Z"/><path class="cls-8" d="M161,911.77a8.64,8.64,0,0,1,2.94,2.76c.71,1.47,1.4,4.61,2.31,4.37,0,0,1.29-5.13-1.37-7.52C162.1,908.84,161,911.77,161,911.77Z"/><path class="cls-23" d="M191.23,897.58a6.1,6.1,0,0,0-1.73-.54,5.34,5.34,0,0,0-1.52.16s-2.74,17-2.94,17.9S173.31,929,170.2,928.93c-2.8,0-6.13,2.12-6.74,2.54,0,0,6.53,13.81,6.86,16.41.35,2.82,3.73,46.31,3.73,46.31s-.2,2,3.58.94,4.73-2,4.73-2-3.47-34.24-4.2-44.89a19.93,19.93,0,0,0-.67-4,4.05,4.05,0,0,1,.65-3.42c4.78-6.56,12.33-17.19,12.75-19.45C191.51,918.09,191.23,897.58,191.23,897.58Z"/><path class="cls-22" d="M151.49,1078.14H135.17a9,9,0,0,1,.46-4.37c.82-1.81,2.09-2.93,2.2-4.32a4.91,4.91,0,0,0,4.68,1.44,17.63,17.63,0,0,0,2.83,3.67C146.41,1075.33,151.16,1075.06,151.49,1078.14Z"/><path class="cls-23" d="M162.7,949.22c-.55-3.38-7.57-17-7.57-17s-4.44-1.33-7.36-.27-18-7.48-18.53-8.27-8.58-15.87-8.58-15.87a1.88,1.88,0,0,0-1.75.17,2,2,0,0,0-1.06,1.64s6.24,19,7.91,21.93c1,1.78,9.43,7.95,16,12.57a4.08,4.08,0,0,1,1.7,3.89c-.88,6.5-1.1,10.16-2.11,21.31-.84,9.24-1.16,27.14-1.16,27.14s7.31,2.54,12.36,2.87,6.15-5,6.15-5S163.27,952.7,162.7,949.22Z"/><path class="cls-11" d="M161.26,924.56a4.29,4.29,0,0,0,2.56.48c1-.14,1.17-1.27,1.17-1.27a3.75,3.75,0,0,0-1.72,0A7.18,7.18,0,0,0,161.26,924.56Z"/><path class="cls-6" d="M470.81,809.21s-4.53-8.06,0-9.7,6.59-.12,6.8,1.71-1.72,9.07-1.72,9.07Z"/><path class="cls-13" d="M474.45,860.75a145.07,145.07,0,0,1-22.74,2.34,125.27,125.27,0,0,1-17.47-.79c-1.37-.15-2.69-.33-4-.52-13.39-2-20.78-5.63-20.78-5.63s12.23-25.61,22.11-24.62c11.6,1.15,31.24,11.55,33.19,8.64,2.2-3.29,4-31.48,4-31.48,5.14-3.52,8.21.19,8.21.19S487.09,858.47,474.45,860.75Z"/><path class="cls-12" d="M474.45,860.75a145.07,145.07,0,0,1-22.74,2.34,125.27,125.27,0,0,1-17.47-.79c-3.08-9.81-5.3-19.82.9-13.78C446.08,859.17,474.45,860.75,474.45,860.75Z"/><path class="cls-22" d="M408.57,1067.48s-.88,10.18,1.27,11.24l27.54,0s0-3.18-4.42-3.89-12.2-3.29-13.51-9.06S408.57,1067.48,408.57,1067.48Z"/><path class="cls-25" d="M428.79,944.29c-.14,6.66-.46,13.52-1.08,19.69-3,29.28-4,64.65-4.45,71.47-.74,11.84-3.08,30.76-3.08,30.76s-4.64,4.4-13.68,2.3c0,0-7.49-27.24-9.17-55.93,0-.47-.05-.94-.07-1.41-.2-3.79-.4-8.13-.61-12.81-1.37-31.31-2.87-77.84-2.87-77.84l34.55-8.11S429.13,927.7,428.79,944.29Z"/><path class="cls-22" d="M428.79,944.29c-8.76,15.11-25.45,43-32.14,54.07-1.37-31.31-2.87-77.84-2.87-77.84l34.55-8.11S429.13,927.7,428.79,944.29Z"/><path class="cls-6" d="M341.3,915s-5.62,6.61-6.13,8.44-1.41,8.44-.92,10.42,4.22-5.53,5.58-6.33-1,3-.56,3.62,3.15-2.21,4.2-3.18.94-6.15,2.2-9.21S341.3,915,341.3,915Z"/><path class="cls-22" d="M340,1055.92s-4.9,4.47-4,7.65,5.38,5.29,6,9.18,3,6,5.14,6h10.26s1.58-2.73-2.24-3.56-5.27-5.39-5-9.62a74.43,74.43,0,0,0-.36-9.89l-8.13-1.88Z"/><path class="cls-25" d="M422.89,921.23s-32.35,69.21-49.56,99.57-22.59,38.84-22.59,38.84-9.86-3.88-10.76-6.53c0,0,6.58-58.62,18.11-72.91,6.51-8.08,14.16-32.31,14.52-40.79s7.92-28.7,7.92-28.7Z"/><path class="cls-13" d="M432.34,924.49a56.08,56.08,0,0,1-31.06,7.81c-8-.35-23.84-2.62-26.4-9-.6-1.5-.16-3.39.74-6.29,2.34-7.56,7.79-21.94,6.14-53.83a52.11,52.11,0,0,1,.22-8.37c1.71-15.7,10.71-25,19.41-28.05,21.22-7.41,28.3,2.86,28.3,2.86s9.38,7.43,10.79,22.94C443.3,883.61,432.34,924.49,432.34,924.49Z"/><path class="cls-6" d="M407.61,825s9.74,5.92,20.3,4.25c0,0,2.09-.53,1.06-3,.64-2,.56-1.8.94-3.27a51.25,51.25,0,0,0,1.21-5.34l-6-6.29-5.67-6C417.88,819.74,407.61,825,407.61,825Z"/><path class="cls-27" d="M418.54,810.81s3.26,8.72,11.37,12.2c.92-3.38,1.52-6.92,1.52-6.92l-6.31-4.71Z"/><path class="cls-6" d="M437.84,817.37s-18.59,2.32-19.89-9.1-4.58-18.81,7.23-20.78,14.62,2.14,16,5.85S442.64,816.47,437.84,817.37Z"/><path class="cls-28" d="M412.08,785.64c-.16-.2-.54-.37-1.4-.45a3.57,3.57,0,0,1,1.63-.39c.22-1.19.94-3.29,3-3.72a2.58,2.58,0,0,0-1.32,1.81c2.48-2.36,7.65-3.95,21.77-2.3,18.6,2.18,12,13.89,9.53,15.23s-8.4-2.8-12.92-2.62-5.61,6.66-7.17,7.49-.9-.72-2.93-1.73-2.36,2.41-1.84,4.65-2.44,5.08-2.44,5.08l-2.75-3.2c-2.75-3.2-5-16.38-3.55-19.12Z"/><polygon class="cls-25" points="468.84 803.87 437.29 804.15 437.07 799.4 468.53 796.96 468.84 803.87"/><polygon class="cls-25" points="492.65 804.66 458.31 805.16 457.91 796.53 492.17 793.87 492.65 804.66"/><polygon class="cls-22" points="515.82 805.34 486.85 805.37 486.32 793.72 515.17 791.1 515.82 805.34"/><path class="cls-22" d="M516.23,807.3h0a1.63,1.63,0,0,0,1.55-1.69l-.68-15a1.62,1.62,0,0,0-1.7-1.55h0a1.62,1.62,0,0,0-1.54,1.69l.68,15A1.62,1.62,0,0,0,516.23,807.3Z"/><path class="cls-25" d="M437.19,805.16h0a1.43,1.43,0,0,1-1.5-1.37l-.18-3.89a1.45,1.45,0,0,1,1.37-1.5h0a1.44,1.44,0,0,1,1.51,1.37l.17,3.89A1.43,1.43,0,0,1,437.19,805.16Z"/><path class="cls-12" d="M375.62,917c2.34-7.56,7.79-21.94,6.14-53.83a52.11,52.11,0,0,1,.22-8.37h0c7-.6,17.66,6.95,17.66,6.95S393.06,901.87,375.62,917Z"/><path class="cls-13" d="M407.61,825s-17.9,3.08-27.24,14.48S356,867,352.45,872.6,339,916.54,339,916.54s.65,1.23,3.37,2a6.43,6.43,0,0,0,4.49-.38s13.07-22.36,18-33.53c2.05-4.64,37.37-23,50.66-21.11C420.75,864.22,407.61,825,407.61,825Z"/><path class="cls-6" d="M468.65,795.6s3.85,2.36,6.16,1.36,2.1-1.91,2.1-1.91S470,793.12,468.65,795.6Z"/><path class="cls-20" d="M425,837.5s-7.86,49.61-63.61,64.06l-6.08,12L366,915.35s63.47-18.39,62.62-78.72Z"/><polygon class="cls-19" points="423.77 829.58 421.19 829.84 421.19 833.56 424.99 837.5 428.59 836.63 428.59 831.46 426 829.58 423.77 829.58"/><path class="cls-12" d="M413.67,819.72s-2.49.56-8.19,5.29c0,0,5.67,12,17.62,13.47a39.62,39.62,0,0,1,.67-8.9S414.3,826.19,413.67,819.72Z"/><path class="cls-12" d="M423.77,829.58s5.83,3.1,6.26,7.92c0,0,2.23-3.53,1.58-6a19.71,19.71,0,0,0-2.64-5.25S429.17,829.22,423.77,829.58Z"/><path class="cls-29" d="M1222.76,1076.88c-53.26-73-22.87-146.43,38.5-188.1,62.38-42.35-8-130,116.12-165.63,64.22-18.45,120.71,31.85,183.66,34,56.41,2,114.77-42.4,172-21.85,38.3,11.83,76.59,45,73.73,84.72-1.47,20.52-14.54,44.8-1,60.38,57.09,65.77,51.21,123.3,28.83,195.52Z"/><path class="cls-30" d="M1840.17,1080H1201.6a2.36,2.36,0,0,1-2.28-2.43h0a2.36,2.36,0,0,1,2.28-2.43h638.57a2.36,2.36,0,0,1,2.28,2.43h0A2.36,2.36,0,0,1,1840.17,1080Z"/><path d="M1500.5,850.32c10.9-3.08,34.19,6.78,27.85,46.43S1492,929.87,1492,929.87s-13.09-4.11-14.26-29.31S1482.16,855.49,1500.5,850.32Z"/><path class="cls-31" d="M1506,903.33a59.52,59.52,0,0,0,35.77,10.44c4.31-8.28-4.49-12.4-4.49-12.4l-17.13-7.76s-6.16-2-11.24,2C1504.46,899.08,1506,903.33,1506,903.33Z"/><path class="cls-32" d="M1521.09,881.37s5.49,13,8.66,20.67c1.26,3.06,6,11.91,12,11.73,5.29-5.7-1.86-21.73-18-35A21.17,21.17,0,0,1,1521.09,881.37Z"/><path class="cls-33" d="M1521.86,887l5.3-2.6a1.45,1.45,0,0,0,.66-1.94l-5.56-11.33a2.2,2.2,0,0,0-2.45-.83L1515,873a1.45,1.45,0,0,0-.66,1.94l4.74,11.52A2.1,2.1,0,0,0,1521.86,887Z"/><rect class="cls-34" x="1515.61" y="870.85" width="8.8" height="15.52" rx="1.45" transform="translate(-231.66 760.15) rotate(-26.16)"/><rect class="cls-35" x="1515.92" y="871.62" width="7.39" height="12.51" rx="1.19" transform="translate(-231.38 759.96) rotate(-26.16)"/><path class="cls-33" d="M1522.2,884.66a.72.72,0,1,0,.55-.86A.72.72,0,0,0,1522.2,884.66Z"/><path id="c" class="cls-32" d="M1526.76,879.14a1.2,1.2,0,0,0-.33-.13l0,0a2,2,0,0,0-.24-2.69,1.4,1.4,0,0,0-.39-.14,1.63,1.63,0,0,0-.59-1.78,1.24,1.24,0,0,0-.71-.15,1.63,1.63,0,0,0-.62-1.87,1.9,1.9,0,0,0-1.91,3.23,1.35,1.35,0,0,0,.61.18,1.85,1.85,0,0,0,.39,2.39,1.14,1.14,0,0,0,.39.14,1.63,1.63,0,0,0,.59,1.78,1.23,1.23,0,0,0,.65.16,1.39,1.39,0,0,0,.51,1.65,1.6,1.6,0,0,0,1.61-2.72Z"/><path class="cls-32" d="M1510,886.34l-8.13-1.22.65,7.54s4.11,7.42,8,6.14,2-4.55,2-4.55Z"/><path class="cls-32" d="M1495.34,874.1c1.32,8.91,8.06,15.29,15.06,14.26s11.61-9.11,10.29-18-8.07-15.29-15.07-14.26S1494,865.19,1495.34,874.1Z"/><path d="M1503,871.69a.45.45,0,0,0,.24-.17,3.53,3.53,0,0,1,2.75-1.27.47.47,0,0,0,0-.93,4.42,4.42,0,0,0-3.55,1.67.46.46,0,0,0,.12.64A.48.48,0,0,0,1503,871.69Z"/><path d="M1518.56,871.44l.13-.08a.47.47,0,0,0,0-.66,3.26,3.26,0,0,0-3.15-1.07.47.47,0,0,0-.33.56.46.46,0,0,0,.56.34,2.33,2.33,0,0,1,2.21.77A.47.47,0,0,0,1518.56,871.44Z"/><path class="cls-36" d="M1512.09,875.21a12.25,12.25,0,0,0,1.67,1.88.47.47,0,0,1,.09.63,6.31,6.31,0,0,1-3,1.73.12.12,0,0,1-.11-.22,6,6,0,0,0,1.58-1.55.56.56,0,0,0,.05-.5c-.16-.38-.46-1.15-.65-1.78A.21.21,0,0,1,1512.09,875.21Z"/><path class="cls-11" d="M1506.23,881.94a.37.37,0,0,1,.37-.57,30.9,30.9,0,0,0,3.46.44,30.14,30.14,0,0,0,3.48,0,.37.37,0,0,1,.31.61,4.61,4.61,0,0,1-7.62-.46Z"/><path d="M1492.49,873.28c8.28-.37,19.17-8,20.48-12.21-1.13-5.28-5.29-8.26-10.26-6.3S1489.59,866.51,1492.49,873.28Z"/><path d="M1511.08,863.19s4.93,5,9.92,6.15c-1.75-5.84-3-10.26-6-11.7a20.08,20.08,0,0,0-6.3-1.68Z"/><path class="cls-32" d="M1497.27,872.71c1.55,1.45,1.86,3.65.67,4.92s-3.39,1.13-4.94-.32-1.85-3.64-.67-4.91S1495.72,871.27,1497.27,872.71Z"/><path class="cls-36" d="M1495.94,877.05a.66.66,0,0,0,.17-.12,2.1,2.1,0,0,0,.39-2.54,2.26,2.26,0,0,0-2.37-1.06.46.46,0,0,0-.34.56.48.48,0,0,0,.56.35,1.3,1.3,0,0,1,1.35.62,1.19,1.19,0,0,1-.28,1.45.46.46,0,0,0,0,.65A.47.47,0,0,0,1495.94,877.05Z"/><path d="M1503.84,873.06a1.42,1.42,0,1,0,1.42-1.43A1.42,1.42,0,0,0,1503.84,873.06Z"/><path d="M1514.2,873.06a1.43,1.43,0,1,0,1.42-1.43A1.43,1.43,0,0,0,1514.2,873.06Z"/><path class="cls-32" d="M1517.57,1057.14c-.54-5.42,2.26-46.73,2.26-46.73,7.92-36.31,4.81-62.31,4.81-62.31l-13.61,1-5.37,20.52,2.55,34.27s-1,2.64-1.46,4.75c-2.73,11.44,0,25.11,1.67,34.22.78,4.22,2,13.1,2,15.11l-3.41,4.42s12.37,13.7,14.28,13.79c3.7.16,2.61-3.5,2.61-3.5C1518.83,1067.41,1517.73,1058.7,1517.57,1057.14Z"/><path class="cls-34" d="M1506.81,1067.21l.68,8.8,1.59.07.8-8.17c4.21,1.07,7.22,8.71,7.22,8.71,2.9,1,10.27,1.75,12.9.4.63-2.57-6.1-4.37-6.1-4.37-.6.72-4.19,1.27-5.47.5-4.69-4-7-9.81-8-15.22C1510.44,1057.93,1503,1058.45,1506.81,1067.21Z"/><path class="cls-32" d="M1513,950.74l-19.17-2.64c-7.34,16.6-9.73,45.49-11.72,55.79-8,13.4-10.53,54-10.53,54l-3.42,4.42s12.37,13.7,14.28,13.79c3.7.16,2.61-3.5,2.61-3.5-5.09-5.23-6.08-12.17-6.41-13.69-.5-2.3,15.52-47.38,15.52-47.38l1.71-4.28c19.56-32.31,22.77-56.74,22.77-56.74Z"/><path class="cls-34" d="M1467.92,1067.21l.68,8.8,1.58.07.8-8.17c4.21,1.07,7.22,8.71,7.22,8.71,2.9,1,10.28,1.75,12.9.4.63-2.57-6.09-4.37-6.09-4.37-.61.72-4.2,1.27-5.48.5-4.69-4-7-9.81-8-15.22C1471.55,1057.93,1464.13,1058.45,1467.92,1067.21Z"/><path class="cls-37" d="M1477.32,1002c1.92-6.4,1.08-52.27,18-64.74l29.09,3.07c6.72,10.88,4.26,39.2,2,62.5C1512.71,1007.71,1501.84,1009.67,1477.32,1002Z"/><path class="cls-38" d="M1524.76,933.15c0-6.37,5.52-15.92,2.87-22.35-1.93-5.17-5.72-16.84-9.84-17.63-1.68-.32-3.52,0-5.83-.64,0,0,1.21,5.4-1.52,5.62-5.25.42-8-6.3-8-6.3-2.83-.27-12.7,2.67-12.69,3.74,0,8.34,3.7,21.84,5.92,30.86a40.54,40.54,0,0,1-.38,10.76c-.84,2.71-1.86,4.26-1.87,4.85,0,0,19.45,6.6,31.82-.21C1525.24,941.85,1524.76,937.45,1524.76,933.15Z"/><g id="c-2" data-name="c"><path class="cls-32" d="M1490.16,939.21l1.65.66s1.73-2.75,3.48-2.66l-.87,2.62s1,3.07,6.3,2.72c4.53,1,1.36,3.18,2.62,4,1.85,1.27-3.35,4.39-7.72,3-5.66-1.74-9.34-7.09-9.34-7.09Z"/></g><path class="cls-32" d="M1490.16,895.09s-13.86,8.11-20.57,27.57c6,6.68,11.1,1.69,11.1,1.69l13.43-13.26s3.94-4.85,2.06-10.77C1494.53,895.16,1490.16,895.09,1490.16,895.09Z"/><path class="cls-32" d="M1490.16,939.21,1480.47,925s-2.29-5.44-10.88-2.36c-.42,4.62,2.93,11.19,18.25,21.33A33.27,33.27,0,0,1,1490.16,939.21Z"/><path class="cls-11" d="M1510.44,898.15c.47,2.19-.8,4.8-4.46,3.58-4.38-1.47-6.42-9.69-6.42-9.69l2.75-1.49A13.56,13.56,0,0,0,1510.44,898.15Z"/><path class="cls-11" d="M1510.44,898.15c.54,1.13,3.62,4,5.08,2.29s-.24-6.22-.24-6.22l-3.32-1.69S1513.26,896.59,1510.44,898.15Z"/><path class="cls-31" d="M1490.16,895.09s-13.86,8.11-20.57,27.57c6,6.68,11.63,1.18,11.63,1.18l12.9-12.75s3.94-4.85,2.06-10.77C1494.53,895.16,1490.16,895.09,1490.16,895.09Z"/><path class="cls-31" d="M1409.82,1047.71l8.51,27.14c.23.72.61,1.16,1,1.16h0c.75,0,1.33-1.45,1.21-3l-1.86-25.25Z"/><path class="cls-31" d="M1331.3,1047.71l-8.51,27.14c-.23.72-.61,1.16-1,1.16h0c-.75,0-1.33-1.45-1.21-3l1.85-25.25Z"/><path class="cls-31" d="M1290.81,1047.71l-8.52,27.14c-.22.72-.6,1.16-1,1.16h0c-.75,0-1.32-1.45-1.2-3l1.85-25.25Z"/><path class="cls-38" d="M1339.59,983.27h57.34a28.62,28.62,0,0,1,28.62,28.62v0a36.81,36.81,0,0,1-36.81,36.81h-49.16a0,0,0,0,1,0,0V983.27A0,0,0,0,1,1339.59,983.27Z"/><path class="cls-31" d="M1320.56,983.27h57.34a28.62,28.62,0,0,1,28.62,28.62v0a36.81,36.81,0,0,1-36.81,36.81h-49.16a0,0,0,0,1,0,0V983.27A0,0,0,0,1,1320.56,983.27Z"/><path class="cls-38" d="M1303.92,946.45h31.92a31.47,31.47,0,0,1,31.47,31.47v21.9a0,0,0,0,1,0,0h-63.39a0,0,0,0,1,0,0V946.45A0,0,0,0,1,1303.92,946.45Z"/><path class="cls-39" d="M1297.1,998.7H1388a18.72,18.72,0,0,1,18.72,18.72v0a0,0,0,0,1,0,0H1297.1a0,0,0,0,1,0,0V998.7A0,0,0,0,1,1297.1,998.7Z"/><rect class="cls-38" x="1297.1" y="1015.25" width="109.59" height="33.5"/><path class="cls-31" d="M1303.92,946.45h0a0,0,0,0,1,0,0v53.37a0,0,0,0,1,0,0h-22a0,0,0,0,1,0,0V968.5A22,22,0,0,1,1303.92,946.45Z"/><path class="cls-40" d="M1348.83,888a10.61,10.61,0,1,1-10.61-10.61A10.61,10.61,0,0,1,1348.83,888Z"/><path class="cls-41" d="M1365.22,917.87c5-4.84,10.24-25.14-3.63-31.28-13.13-5.8-29.7,2.31-30.33,16.25a24,24,0,0,0,10,20.71Z"/><path class="cls-32" d="M1425.82,1039.52l4.18,5.85s3.74,4.77,8.19,2.53,2.48-9.39,2.48-9.39l-5.11-6.74Z"/><path class="cls-41" d="M1440.5,1037.73a33.51,33.51,0,0,0,9.38-1.7c2.74-.94,9.89-3.65,11.49,1.24.24.73.13,1.76-1.21,3.31-2,2.3-5,4.82-12.1,7-8.51,2.64-9.19,4.14-12.44,4.94s-4.49-3.86-5.79-7.68h0c.6.81,2.37,2.79,8.69,1.63C1440.41,1046.15,1435,1040.21,1440.5,1037.73Z"/><path class="cls-32" d="M1390.38,1059.64v4s.27,6.05,5.2,6.82,7.48-6.2,7.48-6.2l-.18-6.25Z"/><path class="cls-42" d="M1371.52,960.78c-2.41,0-7.33,8.78-6.91,9.51,5.82,6.46,28.57,7.13,28.57,7.13l2.73-2.81A180.72,180.72,0,0,1,1371.52,960.78Z"/><path class="cls-42" d="M1350,940.6c2.21,6.65,12.26,28.88,14.66,29.69l6.91-9.51s-10.46-23.34-12.26-26.82C1356.15,927.93,1346.32,929.75,1350,940.6Z"/><path class="cls-32" d="M1350.57,918.77s1,8.59,1.36,11.75l-11.22,2.86a187.49,187.49,0,0,1-1.55-21.74Z"/><path class="cls-32" d="M1338.79,906.25c-.56,10.32,5.56,19,13.66,19.47s15.12-7.58,15.68-17.89-5.57-19-13.67-19.47S1339.34,895.94,1338.79,906.25Z"/><path d="M1363.83,909.3a1.42,1.42,0,0,0,1.64,1.15,1.41,1.41,0,0,0-.49-2.78A1.42,1.42,0,0,0,1363.83,909.3Z"/><path d="M1352.43,908.77a1.53,1.53,0,1,0,1.24-1.77A1.52,1.52,0,0,0,1352.43,908.77Z"/><path class="cls-41" d="M1351.17,907.08a.6.6,0,0,0,.31-.17,4,4,0,0,1,3.29-1.09.53.53,0,1,0,.16-1.05,5.09,5.09,0,0,0-4.25,1.43.53.53,0,0,0,0,.75A.55.55,0,0,0,1351.17,907.08Z"/><path class="cls-41" d="M1367.36,908.22a.49.49,0,0,0,.17-.06.53.53,0,0,0,.21-.72,3.7,3.7,0,0,0-3.29-1.92.53.53,0,1,0,0,1.06,2.67,2.67,0,0,1,2.32,1.37A.52.52,0,0,0,1367.36,908.22Z"/><path class="cls-36" d="M1362.09,912a13.82,13.82,0,0,0,1.51,2.62.57.57,0,0,1,0,.77c-.87.84-2.79,1.18-4,1.31a.15.15,0,0,1-.07-.28,7.36,7.36,0,0,0,2.24-1.45.68.68,0,0,0,.17-.58c-.09-.48-.26-1.46-.33-2.25A.25.25,0,0,1,1362.09,912Z"/><path class="cls-36" d="M1355.4,921.25a6.51,6.51,0,0,1-4.58-4,.6.6,0,0,1,.4-.73.58.58,0,0,1,.72.4c0,.15,1.2,3.64,6.93,3.59a.58.58,0,0,1,.59.58.59.59,0,0,1-.58.59A12.08,12.08,0,0,1,1355.4,921.25Z"/><path class="cls-41" d="M1337.64,906.22c9.39,1.47,26-4.85,28.4-9.26-.06-6.19-8.52-11.81-14.55-10.74S1335.93,898,1337.64,906.22Z"/><path class="cls-32" d="M1342.41,905.56c1.41,2,1.25,4.51-.37,5.67s-4.07.49-5.49-1.49-1.25-4.51.37-5.67S1341,903.58,1342.41,905.56Z"/><path class="cls-36" d="M1339.91,910.12a.43.43,0,0,0,.23-.1,2.4,2.4,0,0,0,1-2.77,2.56,2.56,0,0,0-2.41-1.72.54.54,0,0,0-.52.55.55.55,0,0,0,.55.52,1.51,1.51,0,0,1,1.38,1,1.38,1.38,0,0,1-.64,1.57.53.53,0,0,0-.12.74A.54.54,0,0,0,1339.91,910.12Z"/><path class="cls-43" d="M1354.8,1002.52l47.79-2s2.36-11.92.58-16.65-45.68-3.76-45.68-3.76Z"/><path class="cls-44" d="M1340.74,971.89c-1.29,3-6.34,11.9-5.85,19.12.5,7.45,5.76,13.94,14.66,13.8,0,0,16.77-9.54,13.14-29.07A72.3,72.3,0,0,0,1340.74,971.89Z"/><path class="cls-44" d="M1348.22,1006.51l42.1,4s14.44-6.09,14.36-11.27-42.5-19.33-42.5-19.33C1337.3,972.62,1329,1003.5,1348.22,1006.51Z"/><path class="cls-44" d="M1404.68,999.21l-.85,59.38s-10.5,4.43-14.19,0c-1.73-20.16-10-38-.77-50.3C1401.24,991.88,1404.68,999.21,1404.68,999.21Z"/><path class="cls-43" d="M1403.07,983.68l35,48.11s-7.81,10.45-13.27,9.22c-9.42-11.92-28.48-25.89-28.61-40.89C1396.06,980,1403.07,983.68,1403.07,983.68Z"/><path class="cls-34" d="M1340.22,929.61l11.79-.13c5.41,6.29,10.91,11.69,11.88,16,1.27,5.66,1,36.22,1,36.22-9.92,3.63-21,.4-28.24-2.29,1.82-15-10.26-31.95-3.23-43.39C1335.21,933.15,1337.55,931.79,1340.22,929.61Z"/><path class="cls-41" d="M1403.37,1063.5a33.55,33.55,0,0,0,8.62,4.07c2.77.83,10.16,2.78,8.62,7.7-.23.73-.91,1.49-2.91,2-3,.71-6.88,1-13.92-1.33-8.46-2.8-9.89-2-13-3.21s-1.4-5.75-.24-9.61h0c0,1,.3,3.64,6.12,6.38C1398.4,1070.3,1397.47,1062.33,1403.37,1063.5Z"/><path class="cls-41" d="M1363.56,984.19h38.19l7.53-24a1.71,1.71,0,0,0-1.63-2.23h-34.59a1.72,1.72,0,0,0-1.64,1.2Z"/><path class="cls-45" d="M1366.45,984.19H1403a2.25,2.25,0,0,0,2.14-1.56l7-22.41a1.72,1.72,0,0,0-1.64-2.23H1376a1.71,1.71,0,0,0-1.63,1.2Z"/><path class="cls-46" d="M1388.94,971.56a2.54,2.54,0,1,0,3.19-2A2.67,2.67,0,0,0,1388.94,971.56Z"/><path class="cls-41" d="M1343.16,980.64h23.29a0,0,0,0,1,0,0v0a3.49,3.49,0,0,1-3.49,3.49h-19.8a0,0,0,0,1,0,0v-3.49A0,0,0,0,1,1343.16,980.64Z" transform="translate(2709.61 1964.78) rotate(-180)"/><path class="cls-32" d="M1362,982.4c-2.73,0-6.32.49-6.24-.92s1.5-1.94,1.67-3.64c.15-1.51-4.92-1.12-8.13,3.86l-.94-.52-2.71,4.61,1.71.64c2.9,3.48,11.64,5.27,16.78,2.55S1364.74,982.42,1362,982.4Z"/><path class="cls-42" d="M1329.31,937.75c-3.37,7.41-15.78,24.23-13.07,33.53,1.9,6.52,30,16.06,30,16.06l2.67-6.8L1329.37,966s11.38-22.2,12.56-26.4C1344,932.29,1334.61,926.11,1329.31,937.75Z"/><path class="cls-34" d="M1339.48,925.35l.27,4.63H1352v-3.7S1343.81,925.94,1339.48,925.35Z"/><path class="cls-38" d="M1300.91,983.27h26.54a28.62,28.62,0,0,1,28.62,28.62v0a36.81,36.81,0,0,1-36.81,36.81h-18.35a0,0,0,0,1,0,0V983.27A0,0,0,0,1,1300.91,983.27Z"/><path class="cls-31" d="M1281.88,983.27h26.54a28.62,28.62,0,0,1,28.62,28.62v0a36.81,36.81,0,0,1-36.81,36.81h-18.35a0,0,0,0,1,0,0V983.27A0,0,0,0,1,1281.88,983.27Z"/><path class="cls-44" d="M1234.12,1059.52c-3.61,15.16-16.51,6.82-13.81,16.4a1.7,1.7,0,0,0,1.6,1.2l7.57.29a3.44,3.44,0,0,0,2.06-.59c4-2.74,6.71-6.59,15.34-7.06-.07-3.68.1-8.94-1.12-10.82Z"/><path class="cls-40" d="M1254.08,953.17s-22,33.6-25.07,44.05,3.32,28.16,2.17,63.85c6.88,1.79,16.06.26,16.06.26s5.53-44.77-1-55.34c9.74-14.86,34.2-47.3,34.2-47.3Z"/><path class="cls-44" d="M1266.3,1064.41c-5.61,7.63-19.6,3.11-19,13.35,21.21-.33,30-.29,30-.29a72.58,72.58,0,0,0-1-10.11Z"/><path class="cls-41" d="M1259.73,946.38s-7,54.82-5.41,65.58,6.65,19.19,6.82,54.9c6.95,1.53,17.57,2.9,17.57,2.9s4.48-43.07-4.73-54.93c2.61-17.57,15-61.77,15-61.77Z"/><path class="cls-42" d="M1223.74,922.25l-8.57-9.61a1,1,0,0,0-.73-.33l-7,0c-.2,0-.82,1.11-.69,1.26l6,5.37a.24.24,0,0,0,.11.06l10.36,3.85C1223.43,922.87,1223.89,922.42,1223.74,922.25Z"/><path class="cls-34" d="M1223.08,922.89l-8.16-9a1,1,0,0,0-.73-.34l-7.27-.13a.23.23,0,0,0-.17.39l5.75,6.33a.26.26,0,0,0,.1.07l10.25,3.1A.23.23,0,0,0,1223.08,922.89Z"/><path class="cls-32" d="M1239.2,931.15l-5.9-2.89s-5.82-5.89-6.68-7.21c-1.3-.66-3.75-2.31-4.3-2.37a9.3,9.3,0,0,0-1.68.11l2.74,3.11a4.43,4.43,0,0,1-3-.8c-1.65-1.05-4.58-3.87-6-3.32l-.51.45s-.9-1-1.75-.61.84,4.61,5.65,9.12a14.32,14.32,0,0,0,1.91,3.31l9.72,3.42Z"/><path class="cls-42" d="M1213.59,915.2a.71.71,0,1,0,1-1,.71.71,0,1,0-1,1Z"/><path class="cls-32" d="M1266.68,887.76c-1.75,2.27,12,4.74,13.8,0s-1.32-17.69-1.32-17.69l-12.5,2.66S1269,884.81,1266.68,887.76Z"/><path class="cls-32" d="M1281.9,859.51c1,10-4.48,18.83-12.36,19.66s-15.12-6.64-16.17-16.67,4.48-18.83,12.36-19.66S1280.84,849.47,1281.9,859.51Z"/><path d="M1258,865.45a1.49,1.49,0,1,1-.9-1.91A1.49,1.49,0,0,1,1258,865.45Z"/><path d="M1267.81,863.31a1.61,1.61,0,1,1-1-2.06A1.62,1.62,0,0,1,1267.81,863.31Z"/><path class="cls-36" d="M1260.87,865.14c-.32,2.35-.76,5.25-.76,5.25a3.64,3.64,0,0,0,4.11.5c-1.28,0-2.68-.2-2.89-1.84S1260.87,865.14,1260.87,865.14Z"/><path class="cls-40" d="M1257.58,862a.58.58,0,0,1-.57,0,1.65,1.65,0,0,0-1.22-.11,1.89,1.89,0,0,0-1,1.2.57.57,0,0,1-.73.34.57.57,0,0,1-.34-.74,2.91,2.91,0,0,1,1.66-1.87,2.82,2.82,0,0,1,2.16.17.57.57,0,0,1,.23.78A.53.53,0,0,1,1257.58,862Z"/><path class="cls-40" d="M1265,860.41a.58.58,0,0,0,.54-.17,1.63,1.63,0,0,1,1.12-.5,1.86,1.86,0,0,1,1.32.81.58.58,0,0,0,.81.07.57.57,0,0,0,.07-.8,2.93,2.93,0,0,0-2.18-1.23,2.81,2.81,0,0,0-2,.88.58.58,0,0,0,0,.81A.57.57,0,0,0,1265,860.41Z"/><path class="cls-40" d="M1279,865.88c-5.19-4.35-3.76-11-3.76-11-2.52.17-3.22,1.24-3.22,1.24a5.46,5.46,0,0,1-1.53-4.51c-5.46-.59-7,3.27-11.22,5.54-5.7,3.12-13.89,2.72-16.6-4.54a1.32,1.32,0,0,1,1.67-1.71,5.74,5.74,0,0,0,3.58.08,6.2,6.2,0,0,1-2.27-3.07,1.32,1.32,0,0,1,1.83-1.56c1.56.72,4.18,1.08,8.16-.84,2.65-1.27,7.84-7.46,12.05-7.66,3.45-.17,6.78,1.91,9,5.57a10.59,10.59,0,0,1,11.39,7.26c3.12,8.44-8.57,21.47-8.57,21.47S1280.34,867.21,1279,865.88Z"/><path class="cls-11" d="M1261.51,874.73a.44.44,0,0,1,.13-.8,30.8,30.8,0,0,0,7.74-2.9.44.44,0,0,1,.62.51,5.47,5.47,0,0,1-8.49,3.19Z"/><path class="cls-32" d="M1275.27,860c-1.69,1.66-2,4.13-.59,5.52s3.84,1.15,5.53-.52,2-4.14.59-5.52S1277,858.3,1275.27,860Z"/><path class="cls-36" d="M1276.91,864.77a.49.49,0,0,1-.2-.13,2.33,2.33,0,0,1-.51-2.83,2.48,2.48,0,0,1,2.61-1.25.52.52,0,1,1-.21,1,1.51,1.51,0,0,0-1.5.74,1.34,1.34,0,0,0,.36,1.62.51.51,0,0,1-.55.84Z"/><path class="cls-43" d="M1251.44,957.2c9.78,2,27.36,5.44,36.67,1.81,3.51-5,4.41-33.63,4.41-33.63,1-29.41-2.51-33.77-10.47-43.62-3.33,1.53-11.69,2.84-15.36,2.87,0,0-8.32,11.55-10,19.94s-1.83,23.64-2,32.3C1254.59,946.49,1252.69,951.13,1251.44,957.2Z"/><path class="cls-44" d="M1283.21,890.68c5.72,11.14,4.43,23.47-12.21,47.76-11.65-1-13.93-10.73-13.93-10.73s3.2-12.06,7.36-27.22S1280.71,885.81,1283.21,890.68Z"/><path class="cls-44" d="M1232.35,925.38l25,2s10.69-2,13.7,11.06c-5.35,4.16-19.17,5.73-41.84-2.69C1231.56,932.49,1232.35,925.38,1232.35,925.38Z"/><polygon class="cls-11" points="1266.76 883.8 1266.53 890.51 1283.4 883.43 1281.36 878.01 1266.76 883.8"/><path class="cls-47" d="M1422.55,903.85h-39.4a4.43,4.43,0,0,0-4.43,4.43v22.11a4.43,4.43,0,0,0,4.43,4.43h1.28l4.57,8.6a1.63,1.63,0,0,0,2.83.09l5.28-8.69h25.44a4.43,4.43,0,0,0,4.43-4.43V908.28A4.43,4.43,0,0,0,1422.55,903.85Z"/><path class="cls-47" d="M1402,898.9h0a2.59,2.59,0,0,1-2.59-2.59v-7.88a2.59,2.59,0,0,1,2.59-2.59h0a2.59,2.59,0,0,1,2.59,2.59v7.88A2.59,2.59,0,0,1,1402,898.9Z"/><path class="cls-47" d="M1411.41,898.14h0a2.59,2.59,0,0,1,0-3.66l5.57-5.58a2.6,2.6,0,0,1,3.67,0h0a2.6,2.6,0,0,1,0,3.67l-5.58,5.57A2.59,2.59,0,0,1,1411.41,898.14Z"/><path class="cls-47" d="M1392.63,898.14h0a2.59,2.59,0,0,0,0-3.66l-5.57-5.58a2.6,2.6,0,0,0-3.67,0h0a2.6,2.6,0,0,0,0,3.67l5.58,5.57A2.59,2.59,0,0,0,1392.63,898.14Z"/><path class="cls-11" d="M1420.16,902h-39.4a4.43,4.43,0,0,0-4.43,4.43v22.11a4.43,4.43,0,0,0,4.43,4.43H1382l4.57,8.6a1.62,1.62,0,0,0,2.83.08l5.28-8.68h25.44a4.43,4.43,0,0,0,4.43-4.43V906.41A4.43,4.43,0,0,0,1420.16,902Z"/><rect class="cls-42" x="1384.4" y="907.71" width="32.4" height="19.66" rx="1.19"/><path class="cls-34" d="M1416.79,908.89v1l-13.67,9.83a3.78,3.78,0,0,1-4.49,0l-14.24-10.26v-.54a1.2,1.2,0,0,1,1.19-1.2l30,0A1.19,1.19,0,0,1,1416.79,908.89Z"/><path class="cls-11" d="M1400.26,897.26h0a2.59,2.59,0,0,1-2.59-2.59v-7.88a2.59,2.59,0,0,1,2.59-2.59h0a2.59,2.59,0,0,1,2.59,2.59v7.88A2.59,2.59,0,0,1,1400.26,897.26Z"/><path class="cls-11" d="M1409.65,896.5h0a2.59,2.59,0,0,1,0-3.66l5.57-5.58a2.6,2.6,0,0,1,3.67,0h0a2.6,2.6,0,0,1,0,3.67l-5.58,5.57A2.59,2.59,0,0,1,1409.65,896.5Z"/><path class="cls-11" d="M1390.87,896.5h0a2.59,2.59,0,0,0,0-3.66l-5.57-5.58a2.6,2.6,0,0,0-3.67,0h0a2.6,2.6,0,0,0,0,3.67l5.58,5.57A2.59,2.59,0,0,0,1390.87,896.5Z"/><path class="cls-48" d="M1558.81,793.92h-56a12,12,0,0,0-12,12v22.53a12,12,0,0,0,12,12h38.65l-1.36,25.16a1.75,1.75,0,0,0,3.34.82l11.91-26h3.49a12,12,0,0,0,12-12V805.89A12,12,0,0,0,1558.81,793.92Z"/><path class="cls-29" d="M1560.43,808.83h-58.24a4.1,4.1,0,0,1-4.1-4.09h0a4.11,4.11,0,0,1,4.1-4.1h58.24a4.11,4.11,0,0,1,4.1,4.1h0A4.1,4.1,0,0,1,1560.43,808.83Z"/><path class="cls-29" d="M1560.43,821h-58.24a4.1,4.1,0,0,1-4.1-4.09h0a4.1,4.1,0,0,1,4.1-4.09h58.24a4.1,4.1,0,0,1,4.1,4.09h0A4.1,4.1,0,0,1,1560.43,821Z"/><rect class="cls-29" x="1498.09" y="824.91" width="47.12" height="8.19" rx="4.09"/><rect class="cls-11" x="1680.76" y="790.83" width="53.2" height="29.48" rx="14.74"/><rect class="cls-11" x="1641.53" y="833.09" width="69.07" height="38.27" rx="19.13"/><polygon class="cls-11" points="1689.2 820.31 1689.2 835.63 1698.74 820.31 1689.2 820.31"/><path class="cls-11" d="M1700.81,869.65V883.9a1.09,1.09,0,0,1-2.06.49l-7.48-14.74Z"/><path class="cls-29" d="M1725.34,802.8h-36a3.16,3.16,0,0,1-3.15-3.16h0a3.16,3.16,0,0,1,3.15-3.16h36a3.16,3.16,0,0,1,3.16,3.16h0A3.16,3.16,0,0,1,1725.34,802.8Z"/><rect class="cls-29" x="1686.22" y="806.67" width="42.28" height="6.31" rx="3.16"/><path class="cls-29" d="M1701.59,845.05h-50.41a3.51,3.51,0,0,1-3.51-3.51h0a3.51,3.51,0,0,1,3.51-3.51h50.41a3.52,3.52,0,0,1,3.51,3.51h0A3.51,3.51,0,0,1,1701.59,845.05Z"/><path class="cls-29" d="M1701.59,856.19h-50.41a3.51,3.51,0,0,1-3.51-3.51h0a3.51,3.51,0,0,1,3.51-3.51h50.41a3.51,3.51,0,0,1,3.51,3.51h0A3.51,3.51,0,0,1,1701.59,856.19Z"/><rect class="cls-29" x="1666.76" y="860.3" width="38.34" height="7.02" rx="3.51"/><path class="cls-11" d="M1193.86,811.52l-.07,0a1.34,1.34,0,0,1-.91-1.67,27.42,27.42,0,0,1,2.39-5.57,1.35,1.35,0,1,1,2.35,1.31,25.11,25.11,0,0,0-2.17,5A1.34,1.34,0,0,1,1193.86,811.52Zm5.59-10a1.4,1.4,0,0,1-.58-.3,1.33,1.33,0,0,1-.11-1.89,25.4,25.4,0,0,1,4.5-4.06,1.35,1.35,0,0,1,1.55,2.2,23.45,23.45,0,0,0-4,3.63A1.34,1.34,0,0,1,1199.45,801.52Zm9.33-6.56a1.34,1.34,0,0,1-.19-2.56,27.55,27.55,0,0,1,5.82-1.57,1.34,1.34,0,1,1,.42,2.65,25.61,25.61,0,0,0-5.26,1.42A1.35,1.35,0,0,1,1208.78,795Zm11.26-1.87a1.34,1.34,0,0,1,.34-2.65,42.39,42.39,0,0,1,5.9.56,1.34,1.34,0,0,1-.43,2.65,38.61,38.61,0,0,0-5.53-.52A1.26,1.26,0,0,1,1220,793.09Zm15.56,3c-.81-.19-1.64-.41-2.47-.67-.6-.19-1.21-.36-1.8-.53a1.33,1.33,0,0,1-.94-1.65,1.35,1.35,0,0,1,1.65-.94c.62.17,1.25.36,1.88.55a34.2,34.2,0,0,0,3.58.91,1.34,1.34,0,0,1-.51,2.63C1236.53,796.27,1236.06,796.16,1235.6,796.05Zm7.05.84a1.34,1.34,0,0,1,.3-2.65,21.86,21.86,0,0,0,5.36-.7,1.36,1.36,0,0,1,1.64,1,1.34,1.34,0,0,1-1,1.64,24.76,24.76,0,0,1-6,.79A1.65,1.65,0,0,1,1242.65,796.89Zm11-2.92a1.34,1.34,0,0,1-.37-2.47,21.25,21.25,0,0,0,4.29-3.28,1.35,1.35,0,0,1,1.89,1.92,24.56,24.56,0,0,1-4.83,3.69A1.31,1.31,0,0,1,1253.65,794Zm8.18-7.94a1.49,1.49,0,0,1-.43-.19A1.33,1.33,0,0,1,1261,784a30.43,30.43,0,0,0,2.55-4.88,1.34,1.34,0,0,1,2.48,1,32.28,32.28,0,0,1-2.78,5.32A1.35,1.35,0,0,1,1261.83,786Zm174.4,39a1.33,1.33,0,0,1-1-.9c-.57-1.77-1.22-3.56-1.93-5.31a1.34,1.34,0,1,1,2.49-1c.74,1.81,1.41,3.67,2,5.5A1.33,1.33,0,0,1,1437,825,1.27,1.27,0,0,1,1436.23,825Zm-179.8-51.66-.08,0a40.05,40.05,0,0,1-5.57-2.12,1.35,1.35,0,0,1,1.16-2.43,34.64,34.64,0,0,0,5.18,2,1.35,1.35,0,0,1-.69,2.6Zm5.6,1.3a1.34,1.34,0,0,1,.54-2.63c1,.17,1.94.32,3,.45a34.47,34.47,0,0,0,.53-4.14,1.34,1.34,0,1,1,2.68.18,36.28,36.28,0,0,1-.53,4.25,1.34,1.34,0,0,1-.27,2.67l-.86-.08a1.46,1.46,0,0,1-.83.07,1.65,1.65,0,0,1-.47-.21c-1.26-.15-2.49-.33-3.66-.54Zm169.87,39.71a1.36,1.36,0,0,1-.9-.71c-.83-1.67-1.74-3.35-2.7-5a1.34,1.34,0,1,1,2.32-1.36c1,1.68,1.93,3.42,2.79,5.14a1.34,1.34,0,0,1-.61,1.8A1.3,1.3,0,0,1,1431.9,814.39Zm-158.41-38.65a1.34,1.34,0,0,1-1-1.33,1.36,1.36,0,0,1,1.38-1.32c1.81,0,3.72,0,5.69,0a1.35,1.35,0,1,1,.07,2.69c-2,.06-4,.06-5.82,0A.86.86,0,0,1,1273.49,775.74Zm-27.37-7.36a1.5,1.5,0,0,1-.5-.23,26,26,0,0,1-3.7-3.39c-.23-.25-.45-.51-.67-.76a1.34,1.34,0,1,1,2-1.76l.64.73a23.44,23.44,0,0,0,3.32,3,1.34,1.34,0,0,1-1.12,2.38Zm38.88,7.06a1.34,1.34,0,0,1,.22-2.64c1.82-.13,3.74-.29,5.69-.49a1.35,1.35,0,0,1,.27,2.68c-2,.2-3.93.36-5.78.49A1.07,1.07,0,0,1,1285,775.44Zm11.46-1.14a1.32,1.32,0,0,1-1-1.14,1.34,1.34,0,0,1,1.16-1.5c1.82-.23,3.73-.49,5.68-.78a1.33,1.33,0,0,1,1.52,1.13,1.34,1.34,0,0,1-1.13,1.53c-2,.29-3.89.55-5.73.79A1.27,1.27,0,0,1,1296.46,774.3Zm129.61,30.17a1.36,1.36,0,0,1-.8-.55c-1.06-1.55-2.19-3.09-3.35-4.58a1.34,1.34,0,0,1,2.11-1.65c1.21,1.53,2.37,3.12,3.46,4.71a1.35,1.35,0,0,1-1.42,2.07ZM1238.5,759.83a1.31,1.31,0,0,1-.83-.59,19,19,0,0,1-2.52-5.64,1.34,1.34,0,0,1,2.61-.61,16.62,16.62,0,0,0,2.18,4.82,1.34,1.34,0,0,1-1.44,2ZM1267,764a1.35,1.35,0,0,1-1-1.16,24.3,24.3,0,0,0-1.19-5.31,1.34,1.34,0,0,1,2.53-.9,26.76,26.76,0,0,1,1.33,5.91,1.34,1.34,0,0,1-1.19,1.48A1.42,1.42,0,0,1,1267,764Zm40.9,8.61A1.34,1.34,0,0,1,1308,770c1.79-.3,3.7-.63,5.65-1a1.34,1.34,0,1,1,.48,2.64c-2,.36-3.89.69-5.7,1A1.29,1.29,0,0,1,1307.86,772.62ZM1419,795.4a1.33,1.33,0,0,1-.69-.41c-1.25-1.4-2.56-2.79-3.9-4.12a1.35,1.35,0,0,1,1.9-1.91c1.37,1.37,2.72,2.8,4,4.24a1.34,1.34,0,0,1-1.32,2.2Zm-99.77-24.81a1.35,1.35,0,0,1,.06-2.63c1.76-.33,3.61-.69,5.64-1.09a1.35,1.35,0,1,1,.52,2.64c-2,.4-3.89.76-5.66,1.09A1.32,1.32,0,0,1,1319.2,770.59ZM1237,749.1a1.37,1.37,0,0,1-.49-.23,1.35,1.35,0,0,1-.28-1.88,9.15,9.15,0,0,1,5.72-3.27,1.34,1.34,0,1,1,.53,2.63,6.55,6.55,0,0,0-4.09,2.24A1.34,1.34,0,0,1,1237,749.1Zm26,4.27a1.32,1.32,0,0,1-.73-.45,10.53,10.53,0,0,0-2.49-2.25c-.52-.33-1.07-.65-1.61-1a1.34,1.34,0,0,1,1.3-2.35c.6.33,1.18.68,1.75,1a13,13,0,0,1,3.13,2.81,1.33,1.33,0,0,1-1.35,2.15Zm67.55,15a1.37,1.37,0,0,1-1-1,1.35,1.35,0,0,1,1.06-1.58l3.87-.78,1.77-.36a1.35,1.35,0,1,1,.53,2.64l-1.77.35-3.87.78A1.42,1.42,0,0,1,1330.5,768.38Zm80.32,18.9a1.35,1.35,0,0,1-.58-.3c-1.41-1.24-2.88-2.46-4.37-3.63a1.34,1.34,0,1,1,1.66-2.11c1.52,1.19,3,2.45,4.49,3.73a1.34,1.34,0,0,1-1.2,2.31Zm-163.21-41.07a1.34,1.34,0,0,1,.47-2.64,29.38,29.38,0,0,1,5.87,1.36,1.35,1.35,0,1,1-.87,2.55,26.15,26.15,0,0,0-5.32-1.24Zm94.19,19.9a1.35,1.35,0,0,1,0-2.63l1.94-.38c1.25-.25,2.54-.45,3.82-.62a1.35,1.35,0,0,1,.34,2.67c-1.22.15-2.45.35-3.64.59l-1.94.38A1.36,1.36,0,0,1,1341.8,766.11Zm60,14.08a1.13,1.13,0,0,1-.45-.2c-1.56-1.07-3.16-2.11-4.77-3.09a1.34,1.34,0,0,1,1.39-2.29c1.66,1,3.31,2.07,4.9,3.17a1.34,1.34,0,0,1-1.07,2.41Zm-9.84-6a1,1,0,0,1-.32-.12c-1.68-.88-3.39-1.71-5.1-2.48a1.34,1.34,0,0,1,1.09-2.45c1.76.79,3.53,1.65,5.26,2.55a1.34,1.34,0,0,1-.93,2.5Zm-38.7-9.57a1.36,1.36,0,0,1-1-1.27,1.34,1.34,0,0,1,1.3-1.38c1.93-.07,3.9,0,5.87.06a1.34,1.34,0,1,1-.14,2.68c-1.89-.1-3.79-.12-5.64-.06A1.34,1.34,0,0,1,1353.21,764.66Zm28.19,4.87-.16,0c-1.78-.66-3.59-1.26-5.38-1.79a1.34,1.34,0,1,1,.77-2.57c1.84.54,3.71,1.16,5.55,1.85a1.34,1.34,0,0,1-.78,2.56Zm-16.71-4.26a1.34,1.34,0,0,1,.49-2.64c1.91.27,3.85.61,5.77,1a1.34,1.34,0,0,1,1,1.6,1.36,1.36,0,0,1-1.6,1c-1.85-.41-3.72-.74-5.56-1Z"/><polygon class="cls-49" points="1439.48 816.3 1433.6 822.24 1464.17 855.72 1439.48 816.3"/><polygon class="cls-49" points="1427.88 829.67 1428.2 838.14 1462.82 854.19 1427.88 829.67"/><polygon class="cls-11" points="1464.17 855.72 1407.66 820.24 1430.69 817.79 1464.17 855.72"/><polygon class="cls-11" points="1439.48 816.3 1464.17 855.72 1454.17 813.82 1439.48 816.3"/><path class="cls-11" d="M1755.7,769a1.53,1.53,0,1,1,0-3.06,24.57,24.57,0,0,0,6.12-.73,1.53,1.53,0,0,1,.77,3,27.87,27.87,0,0,1-6.89.82Zm-6.53-.58-.26,0a58.07,58.07,0,0,1-6.56-1.54,1.53,1.53,0,0,1,.86-2.94,55.89,55.89,0,0,0,6.22,1.46,1.53,1.53,0,0,1-.26,3Zm19-2.84a1.53,1.53,0,0,1-.86-2.8,16.72,16.72,0,0,0,3.85-3.67,1.53,1.53,0,0,1,2.43,1.86,19.53,19.53,0,0,1-4.56,4.34A1.51,1.51,0,0,1,1768.17,765.59Zm-105.9-.34a1.55,1.55,0,0,1-.89-.29,1.53,1.53,0,0,1-.36-2.13,43.63,43.63,0,0,1,4.38-5.2,1.53,1.53,0,1,1,2.19,2.14,42.89,42.89,0,0,0-4.08,4.83A1.52,1.52,0,0,1,1662.27,765.25Zm74.3-.45a1.62,1.62,0,0,1-.56-.1c-2-.78-4-1.67-6.12-2.64a1.53,1.53,0,0,1,1.3-2.78c2,1,4,1.81,5.94,2.56a1.53,1.53,0,0,1-.56,3Zm-11.88-5.57a1.54,1.54,0,0,1-.74-.19c-1.91-1-3.85-2.15-5.75-3.32a1.53,1.53,0,1,1,1.6-2.61c1.86,1.13,3.75,2.23,5.62,3.24a1.53,1.53,0,0,1-.73,2.88Zm-53.32-3.4a1.53,1.53,0,0,1-.95-2.73,54.41,54.41,0,0,1,5.53-3.87,1.53,1.53,0,1,1,1.59,2.62,53.29,53.29,0,0,0-5.22,3.65A1.52,1.52,0,0,1,1671.37,755.83Zm42.12-3.45a1.56,1.56,0,0,1-.87-.27l-2-1.41a25.15,25.15,0,0,0-3.34-2,1.54,1.54,0,0,1,1.39-2.74,29.38,29.38,0,0,1,3.72,2.27l2,1.37a1.53,1.53,0,0,1-.86,2.8Zm-30.92-3.33a1.53,1.53,0,0,1-.6-2.94,40.28,40.28,0,0,1,6.46-2.18,1.53,1.53,0,0,1,.72,3,37.51,37.51,0,0,0-6,2A1.66,1.66,0,0,1,1682.57,749.05Zm19.23-2.41-.33,0a25,25,0,0,0-6.15-.55,1.54,1.54,0,0,1-.09-3.07,28.66,28.66,0,0,1,6.89.62,1.53,1.53,0,0,1-.32,3Z"/><polygon class="cls-49" points="1660.79 759.05 1663 766.02 1625.81 779.91 1660.79 759.05"/><polygon class="cls-49" points="1664.49 774.1 1660.86 780.57 1627.47 779.26 1664.49 774.1"/><polygon class="cls-11" points="1625.81 779.91 1684.01 774.81 1667.05 763.72 1625.81 779.91"/><polygon class="cls-11" points="1660.79 759.05 1625.81 779.91 1650.33 751.25 1660.79 759.05"/><path class="cls-11" d="M1617.92,800.4a10.48,10.48,0,0,1,6.51-2.06c5.47,0,8.36,3,8.36,7.16,0,2.41-1.17,4.86-3.54,7.32-3,3.17-5.18,4.74-6.55,4.74a2.26,2.26,0,0,1-2.29-2.29c0-1.13,1-2.25,2.85-3.9a1.75,1.75,0,0,1,.32-.28c2.05-1.89,2.7-2.94,2.7-4.22a2.4,2.4,0,0,0-2.66-2.5,8.74,8.74,0,0,0-2.57.49,8.27,8.27,0,0,1-2.17.48,2.51,2.51,0,0,1-2.41-2.57A3,3,0,0,1,1617.92,800.4Zm5.5,26.81a4,4,0,0,1-4.1-4.1,3.93,3.93,0,0,1,4.1-3.78,3.86,3.86,0,0,1,3.78,3.78A3.9,3.9,0,0,1,1623.42,827.21Z"/><path class="cls-11" d="M1320.62,832.14a8.31,8.31,0,0,1,5.15-1.62c4.32,0,6.61,2.35,6.61,5.66,0,1.9-.92,3.84-2.79,5.78-2.39,2.52-4.11,3.76-5.19,3.76a1.79,1.79,0,0,1-1.81-1.82c0-.89.83-1.78,2.26-3.08a1.11,1.11,0,0,1,.25-.22c1.62-1.5,2.13-2.33,2.13-3.34a1.89,1.89,0,0,0-2.1-2,6.59,6.59,0,0,0-2,.38,6.75,6.75,0,0,1-1.72.38,2,2,0,0,1-1.91-2A2.42,2.42,0,0,1,1320.62,832.14Zm4.35,21.21a3.16,3.16,0,0,1-3.24-3.25,3.11,3.11,0,0,1,3.24-3,3.05,3.05,0,0,1,3,3A3.09,3.09,0,0,1,1325,853.35Z"/><path class="cls-50" d="M1854.89,950.59,1842,974.41a1.86,1.86,0,0,1-2.53.75l-41.4-22.37a1.85,1.85,0,0,1-.75-2.53l12.87-23.82a1.87,1.87,0,0,1,2.53-.76l41.4,22.38A1.87,1.87,0,0,1,1854.89,950.59Z"/><path class="cls-11" d="M1854.89,950.59l-.71,1.31L1828,955.26a6,6,0,0,1-6.22-3.3l-12-24.77.41-.75a1.87,1.87,0,0,1,2.53-.76l41.4,22.38A1.87,1.87,0,0,1,1854.89,950.59Z"/><path class="cls-11" d="M1577.82,905.87A11.92,11.92,0,1,1,1589.74,894,11.92,11.92,0,0,1,1577.82,905.87Zm0-20.55a8.64,8.64,0,1,0,8.64,8.64A8.64,8.64,0,0,0,1577.82,885.32Z"/><path class="cls-29" d="M1814.2,841.51a11.92,11.92,0,1,1,11.91-11.92A11.93,11.93,0,0,1,1814.2,841.51Zm0-20.56a8.64,8.64,0,1,0,8.63,8.64A8.65,8.65,0,0,0,1814.2,821Z"/><path class="cls-11" d="M1604.54,875a6.81,6.81,0,1,1-6.8-6.8A6.8,6.8,0,0,1,1604.54,875Z"/><circle class="cls-29" cx="1814.74" cy="802.8" r="6.8" transform="translate(-22.8 53.65) rotate(-1.68)"/><path class="cls-48" d="M1211.71,896.26a9.7,9.7,0,1,1-9.69-9.69A9.69,9.69,0,0,1,1211.71,896.26Z"/><path class="cls-11" d="M1201.23,902.38h0a1.47,1.47,0,0,1-1.18-.63l-4-6a1.42,1.42,0,1,1,2.36-1.58l2.82,4.2,4.77-7a1.42,1.42,0,1,1,2.34,1.6l-5.95,8.7A1.46,1.46,0,0,1,1201.23,902.38Z"/><path class="cls-48" d="M1212.58,907.4a2.78,2.78,0,1,1-2.78-2.77A2.77,2.77,0,0,1,1212.58,907.4Z"/><g id="c-3" data-name="c"><polygon id="v-2" class="cls-32" points="1733.81 880.87 1733.8 880.87 1727.91 880.89 1726.57 894.81 1733.45 898.44 1740.79 894.85 1739.6 880.89 1733.81 880.87"/><path class="cls-32" d="M1745.52,870.94c-1.34,10.1-8.85,17.42-16.78,16.37s-13.27-10.09-11.93-20.18,8.86-17.42,16.78-16.37S1746.86,860.85,1745.52,870.94Z"/><path class="cls-36" d="M1726.18,871.16c-1.46,1.9-3.3,4.21-3.3,4.21a3.64,3.64,0,0,0,3.34,2.51c-1.14-.61-2.24-1.52-1.6-3.06S1726.18,871.16,1726.18,871.16Z"/><path class="cls-40" d="M1748.79,862.83c.86-9.62-8-12.78-8-12.78s2-.69,1.5-3.6a7.74,7.74,0,0,1-4.74,1.09c-11-1.09-17.92.72-16.82,5,.39,1.53-6.75,2.32-3.57,12.5.68-1.21,1.29-5.72,3.43-6.71s.87,2.52,5.73,2,8.09-2.59,11.66-.65c2.85,1.75,6.42,13.46,6.26,14.26C1744.63,872.11,1748.41,867.05,1748.79,862.83Z"/><path class="cls-40" d="M1716.74,872.64s.93,5.48,2.13,7c.26-2.36,5.44-.88,7.69-.68,4.08.36,8.21-3.26,9.59,2.1,5.19.3,7.08-11.13,7.08-11.13,3.19,11.42-2.53,19.75-15.11,20.91C1719.83,891.55,1715.24,881,1716.74,872.64Z"/><path d="M1732.05,870.56a1.4,1.4,0,1,0-1.3-1.49A1.4,1.4,0,0,0,1732.05,870.56Z"/><path d="M1720.48,870.14a1.4,1.4,0,1,0,.19-2.8,1.4,1.4,0,0,0-.19,2.8Z"/><path class="cls-40" d="M1718.16,867.21a.7.7,0,0,0,.62-.3,2,2,0,0,1,1.35-1,2.46,2.46,0,0,1,1.69.5.69.69,0,0,0,1-.11.7.7,0,0,0-.1-1,3.91,3.91,0,0,0-2.75-.79,3.38,3.38,0,0,0-2.31,1.57.69.69,0,0,0,.18,1A.77.77,0,0,0,1718.16,867.21Z"/><path class="cls-40" d="M1735.21,868.33a.73.73,0,0,0,.45-.12.7.7,0,0,0,.17-1,4.31,4.31,0,0,0-2.87-2,3.36,3.36,0,0,0-2.44.62.7.7,0,0,0-.11,1,.69.69,0,0,0,1,.11,2,2,0,0,1,1.39-.34,3.11,3.11,0,0,1,1.92,1.46A.72.72,0,0,0,1735.21,868.33Z"/><path class="cls-32" d="M1743.36,869.93c-1.74,1.65-2,4.14-.7,5.55s3.85,1.24,5.59-.41,2-4.14.69-5.56S1745.09,868.28,1743.36,869.93Z"/><path class="cls-36" d="M1744.93,874.81a.41.41,0,0,1-.2-.14,2.36,2.36,0,0,1-.47-2.87,2.5,2.5,0,0,1,2.65-1.21.52.52,0,0,1,.4.62.52.52,0,0,1-.62.4,1.51,1.51,0,0,0-1.53.72,1.33,1.33,0,0,0,.34,1.63.53.53,0,0,1,0,.74A.52.52,0,0,1,1744.93,874.81Z"/><path class="cls-11" d="M1731.1,880.48c.05-.36,0-.7-.39-.65a36.33,36.33,0,0,1-3.9.29,36,36,0,0,1-3.91-.23c-.36,0-.45.31-.37.66a4.31,4.31,0,0,0,4.22,3.12C1729,883.65,1730.88,881.83,1731.1,880.48Z"/><path d="M1723.06,1063.15c-5.22,7.19-18,2.78-17.59,12.5H1733a72,72,0,0,0-.86-9.61Z"/><path d="M1752.17,1063.15c-5.21,7.19-18,2.78-17.58,12.5h27.54a70.34,70.34,0,0,0-.86-9.61Z"/><path class="cls-51" d="M1714.05,953.21s-3.16,46.08-1.88,56.32,5.83,23.38,5.31,57.26c6.35,1.59,15.54,0,15.54,0s1.36-38.31-5.35-55.43c2.73-16.62,11.48-54.69,11.48-54.69Z"/><path class="cls-41" d="M1726.05,954.47s6.38,51.73,9.51,61.54,5.84,17,11.49,50.38c6.52.32,15.93.12,15.93.12s-.85-41.35-11-51c-.34-16.86,1.64-60.73,1.64-60.73Z"/><g id="v"><path id="h-5" class="cls-34" d="M1755.46,895.76s-11.08-3.88-14.77-2.1c-11.48,5.53-14.12,0-14.12,0-3.66.31-14.74,2.1-14.74,2.1,0,12.36-.82,24.77-.6,34.13.16,8.15-1.39,30.33-1.39,30.33a111.49,111.49,0,0,0,23.77,3.29,108.93,108.93,0,0,0,23.31-3.16s-.61-22.46-1.13-30.81C1756,920.18,1755.46,908.09,1755.46,895.76Z"/></g><g id="c-4" data-name="c"><path id="c-5" data-name="c" class="cls-42" d="M1692.14,914.14c4.57-10.91,18.14-17.85,19.69-18.38l3.15,14a81.67,81.67,0,0,0-11.25,8c.8,3.9.67,7.73,2.92,12.66,0,0-2-2.71-4.38-1.1s-6.67-1.63-6.67-1.63S1688.64,922.47,1692.14,914.14Z"/></g><g id="c-6" data-name="c"><g id="c-7" data-name="c"><g id="c-8" data-name="c"><path id="c-9" data-name="c" class="cls-52" d="M1694.68,941.71a.86.86,0,0,1-.23,0h-.26a1.26,1.26,0,0,1-1.06-.86l-12.19-39.31a2,2,0,0,1,0-.24v-.25a.31.31,0,0,1,0-.08,1.23,1.23,0,0,1,.85-1l.23,0h31l12.3,41.77h-30.58Z"/><path id="c-10" data-name="c" class="cls-53" d="M1712.67,900a1.24,1.24,0,0,1,1.55.82l12.11,39.21,0,.09a1.23,1.23,0,0,1-.81,1.54h0a1.23,1.23,0,0,1-1.55-.81l-12.15-39.3A1.24,1.24,0,0,1,1712.67,900Z"/></g></g><path id="c-11" data-name="c" class="cls-32" d="M1689.48,925a1.1,1.1,0,0,0-.37-.16l0-.06c.76-1.15.71-2.53-.11-3.07a1.54,1.54,0,0,0-.44-.19,1.86,1.86,0,0,0-.57-2.06,1.47,1.47,0,0,0-.79-.22,1.84,1.84,0,0,0-.61-2.15,2.17,2.17,0,0,0-2.36,3.56,1.43,1.43,0,0,0,.68.24,2.11,2.11,0,0,0,.31,2.74,1.54,1.54,0,0,0,.44.19,1.87,1.87,0,0,0,.57,2.06,1.45,1.45,0,0,0,.73.22,1.57,1.57,0,0,0,.48,1.9,1.83,1.83,0,0,0,2-3Z"/><path class="cls-32" d="M1727.21,922.49l-2.8-1.62a5.28,5.28,0,0,0-5.27-4.06c.52,1.66,1.26,4.06,1.26,4.06s-2.21,1.72-7.46-1.22c-5.12-1.15-2.93,2.59-4.63,2.86-2.51.39,1.83,5.32,7,6.07,6.62,1,7.41-.38,7.41-.38l3.74,1.31Z"/><path id="c-12" data-name="c" class="cls-42" d="M1755.82,927.11c-9.35-.65-28-5.65-28-5.65-2.56,3.92-1.85,9.12-1.85,9.12,14.52,12.73,36.38,16.85,43.08,13.78,6.13-2.8,1.78-40.07-13.59-48.61Z"/></g><path class="cls-53" d="M1706.41,906a2.27,2.27,0,1,0,1.12-3.24A2.43,2.43,0,0,0,1706.41,906Z"/><path class="cls-53" d="M1702.49,905.56a1.35,1.35,0,1,0,2.49-1,1.45,1.45,0,0,0-1.82-.94A1.46,1.46,0,0,0,1702.49,905.56Z"/></g><rect class="cls-54" x="1589.81" y="998.21" width="62.48" height="77.44" transform="translate(3242.1 2073.86) rotate(180)"/><rect class="cls-55" x="1639.42" y="979.87" width="63.95" height="95.79" transform="translate(3342.78 2055.52) rotate(180)"/><rect class="cls-56" x="1613.84" y="1010.35" width="65.3" height="65.3" transform="translate(3292.98 2086.01) rotate(180)"/><rect class="cls-57" x="1622.32" y="1021.06" width="30.31" height="12.41" transform="translate(3274.95 2054.53) rotate(180)"/><rect class="cls-55" x="1659.3" y="1034.06" width="13.23" height="13.23" transform="translate(2619.54 2757.9) rotate(-151.04)"/><circle class="cls-57" cx="1657.29" cy="1047.35" r="7.6"/></svg>